M48
; DRILL file {KiCad 7.0.7} date Mon Sep 16 15:35:46 2024
; FORMAT={-:-/ absolute / inch / decimal}
; #@! TF.CreationDate,2024-09-16T15:35:46-04:00
; #@! TF.GenerationSoftware,Kicad,Pcbnew,7.0.7
; #@! TF.FileFunction,Plated,1,2,PTH
FMAT,2
INCH
; #@! TA.AperFunction,Plated,PTH,ComponentDrill
T1C0.0315
; #@! TA.AperFunction,Plated,PTH,ComponentDrill
T2C0.0400
; #@! TA.AperFunction,Plated,PTH,ComponentDrill
T3C0.0433
; #@! TA.AperFunction,Plated,PTH,ComponentDrill
T4C0.0598
; #@! TA.AperFunction,Plated,PTH,ComponentDrill
T5C0.0866
; #@! TA.AperFunction,Plated,PTH,ComponentDrill
T6C0.1360
%
G90
G05
T1
X4.475Y-3.4844
X4.475Y-3.8844
X4.675Y-3.0844
X4.675Y-3.4844
X4.725Y-3.9844
X4.725Y-4.0844
X4.725Y-4.1844
X4.725Y-4.2844
X5.025Y-3.9844
X5.025Y-4.0844
X5.025Y-4.1844
X5.025Y-4.2844
T2
X4.15Y-3.65
X4.15Y-3.75
X4.15Y-3.85
X4.15Y-3.95
X4.15Y-4.05
X4.15Y-4.15
X4.15Y-4.25
X4.15Y-4.35
X4.15Y-4.45
X4.15Y-4.55
X4.15Y-4.65
X4.15Y-4.75
X4.15Y-4.85
X4.15Y-4.95
X4.15Y-5.05
X4.15Y-5.15
X4.15Y-5.25
X4.15Y-5.35
X4.15Y-5.45
X4.15Y-5.55
X4.25Y-3.65
X4.25Y-3.75
X4.25Y-3.85
X4.25Y-3.95
X4.25Y-4.05
X4.25Y-4.15
X4.25Y-4.25
X4.25Y-4.35
X4.25Y-4.45
X4.25Y-4.55
X4.25Y-4.65
X4.25Y-4.75
X4.25Y-4.85
X4.25Y-4.95
X4.25Y-5.05
X4.25Y-5.15
X4.25Y-5.25
X4.25Y-5.35
X4.25Y-5.45
X4.25Y-5.55
T3
X4.165Y-2.685
X4.165Y-2.785
X4.165Y-2.885
X4.425Y-2.6844
X4.425Y-2.7844
X4.425Y-2.8844
T4
X4.975Y-5.1344
X5.175Y-5.1344
X5.325Y-4.4344
X5.325Y-4.6344
X5.475Y-5.1344
X5.675Y-5.1344
T5
X5.475Y-2.6875
X5.475Y-3.0812
X5.475Y-3.5906
X5.475Y-3.9844
T6
X5.0Y-2.5
X5.0Y-5.5
T0
M30
