%TF.GenerationSoftware,KiCad,Pcbnew,7.0.7*%
%TF.CreationDate,2024-09-11T18:12:46-04:00*%
%TF.ProjectId,Qrig_thermolock,51726967-5f74-4686-9572-6d6f6c6f636b,rev?*%
%TF.SameCoordinates,Original*%
%TF.FileFunction,Soldermask,Bot*%
%TF.FilePolarity,Negative*%
%FSLAX46Y46*%
G04 Gerber Fmt 4.6, Leading zero omitted, Abs format (unit mm)*
G04 Created by KiCad (PCBNEW 7.0.7) date 2024-09-11 18:12:46*
%MOMM*%
%LPD*%
G01*
G04 APERTURE LIST*
%ADD10R,2.000000X1.905000*%
%ADD11O,2.000000X1.905000*%
%ADD12C,1.600000*%
%ADD13O,1.600000X1.600000*%
%ADD14R,6.600000X3.300000*%
%ADD15O,6.600000X3.300000*%
%ADD16C,5.080000*%
%ADD17R,2.400000X1.600000*%
%ADD18O,2.400000X1.600000*%
%ADD19R,1.524000X1.524000*%
%ADD20C,1.524000*%
%ADD21R,3.000000X3.000000*%
%ADD22C,3.000000*%
G04 APERTURE END LIST*
D10*
%TO.C,Q2*%
X112395000Y-73262500D03*
D11*
X112395000Y-70722500D03*
X112395000Y-68182500D03*
%TD*%
%TO.C,Q1*%
X105791000Y-68199000D03*
X105791000Y-70739000D03*
D10*
X105791000Y-73279000D03*
%TD*%
D12*
%TO.C,R1*%
X113665000Y-98662500D03*
D13*
X113665000Y-88502500D03*
%TD*%
D14*
%TO.C, *%
X139065000Y-101202500D03*
D15*
X139065000Y-91202500D03*
%TD*%
D16*
%TO.C,*%
X127000000Y-139700000D03*
%TD*%
%TO.C,*%
X127000000Y-63500000D03*
%TD*%
D17*
%TO.C,U3*%
X120015000Y-101202500D03*
D18*
X120015000Y-103742500D03*
X120015000Y-106282500D03*
X120015000Y-108822500D03*
X127635000Y-108822500D03*
X127635000Y-106282500D03*
X127635000Y-103742500D03*
X127635000Y-101202500D03*
%TD*%
D12*
%TO.C,R2*%
X118745000Y-88502500D03*
D13*
X118745000Y-78342500D03*
%TD*%
D14*
%TO.C, *%
X139065000Y-78262500D03*
D15*
X139065000Y-68262500D03*
%TD*%
D19*
%TO.C,U1*%
X107950000Y-140970000D03*
D20*
X105410000Y-140970000D03*
X107950000Y-138430000D03*
X105410000Y-138430000D03*
X107950000Y-135890000D03*
X105410000Y-135890000D03*
X107950000Y-133350000D03*
X105410000Y-133350000D03*
X107950000Y-130810000D03*
X105410000Y-130810000D03*
X107950000Y-128270000D03*
X105410000Y-128270000D03*
X107950000Y-125730000D03*
X105410000Y-125730000D03*
X107950000Y-123190000D03*
X105410000Y-123190000D03*
X107950000Y-120650000D03*
X105410000Y-120650000D03*
X107950000Y-118110000D03*
X105410000Y-118110000D03*
X107950000Y-115570000D03*
X105410000Y-115570000D03*
X107950000Y-113030000D03*
X105410000Y-113030000D03*
X107950000Y-110490000D03*
X105410000Y-110490000D03*
X107950000Y-107950000D03*
X105410000Y-107950000D03*
X107950000Y-105410000D03*
X105410000Y-105410000D03*
X107950000Y-102870000D03*
X105410000Y-102870000D03*
X107950000Y-100330000D03*
X105410000Y-100330000D03*
X107950000Y-97790000D03*
X105410000Y-97790000D03*
X107950000Y-95250000D03*
X105410000Y-95250000D03*
X107950000Y-92710000D03*
X105410000Y-92710000D03*
%TD*%
D21*
%TO.C, *%
X144145000Y-130412500D03*
D22*
X139065000Y-130412500D03*
%TD*%
D21*
%TO.C, *%
X131445000Y-130412500D03*
D22*
X126365000Y-130412500D03*
%TD*%
D21*
%TO.C, *%
X135255000Y-112632500D03*
D22*
X135255000Y-117712500D03*
%TD*%
M02*
