%TF.GenerationSoftware,KiCad,Pcbnew,7.0.7*%
%TF.CreationDate,2024-09-11T18:12:46-04:00*%
%TF.ProjectId,Qrig_thermolock,51726967-5f74-4686-9572-6d6f6c6f636b,rev?*%
%TF.SameCoordinates,Original*%
%TF.FileFunction,Legend,Top*%
%TF.FilePolarity,Positive*%
%FSLAX46Y46*%
G04 Gerber Fmt 4.6, Leading zero omitted, Abs format (unit mm)*
G04 Created by KiCad (PCBNEW 7.0.7) date 2024-09-11 18:12:46*
%MOMM*%
%LPD*%
G01*
G04 APERTURE LIST*
%ADD10C,0.300000*%
%ADD11C,0.150000*%
%ADD12C,0.033269*%
%ADD13C,0.120000*%
G04 APERTURE END LIST*
D10*
X128102225Y-135206828D02*
X128959368Y-135206828D01*
X128530796Y-136706828D02*
X128530796Y-135206828D01*
X130030796Y-136635400D02*
X129887939Y-136706828D01*
X129887939Y-136706828D02*
X129602225Y-136706828D01*
X129602225Y-136706828D02*
X129459367Y-136635400D01*
X129459367Y-136635400D02*
X129387939Y-136492542D01*
X129387939Y-136492542D02*
X129387939Y-135921114D01*
X129387939Y-135921114D02*
X129459367Y-135778257D01*
X129459367Y-135778257D02*
X129602225Y-135706828D01*
X129602225Y-135706828D02*
X129887939Y-135706828D01*
X129887939Y-135706828D02*
X130030796Y-135778257D01*
X130030796Y-135778257D02*
X130102225Y-135921114D01*
X130102225Y-135921114D02*
X130102225Y-136063971D01*
X130102225Y-136063971D02*
X129387939Y-136206828D01*
X130745081Y-136706828D02*
X130745081Y-135706828D01*
X130745081Y-135849685D02*
X130816510Y-135778257D01*
X130816510Y-135778257D02*
X130959367Y-135706828D01*
X130959367Y-135706828D02*
X131173653Y-135706828D01*
X131173653Y-135706828D02*
X131316510Y-135778257D01*
X131316510Y-135778257D02*
X131387939Y-135921114D01*
X131387939Y-135921114D02*
X131387939Y-136706828D01*
X131387939Y-135921114D02*
X131459367Y-135778257D01*
X131459367Y-135778257D02*
X131602224Y-135706828D01*
X131602224Y-135706828D02*
X131816510Y-135706828D01*
X131816510Y-135706828D02*
X131959367Y-135778257D01*
X131959367Y-135778257D02*
X132030796Y-135921114D01*
X132030796Y-135921114D02*
X132030796Y-136706828D01*
X132745081Y-135706828D02*
X132745081Y-137206828D01*
X132745081Y-135778257D02*
X132887939Y-135706828D01*
X132887939Y-135706828D02*
X133173653Y-135706828D01*
X133173653Y-135706828D02*
X133316510Y-135778257D01*
X133316510Y-135778257D02*
X133387939Y-135849685D01*
X133387939Y-135849685D02*
X133459367Y-135992542D01*
X133459367Y-135992542D02*
X133459367Y-136421114D01*
X133459367Y-136421114D02*
X133387939Y-136563971D01*
X133387939Y-136563971D02*
X133316510Y-136635400D01*
X133316510Y-136635400D02*
X133173653Y-136706828D01*
X133173653Y-136706828D02*
X132887939Y-136706828D01*
X132887939Y-136706828D02*
X132745081Y-136635400D01*
X134102224Y-136563971D02*
X134173653Y-136635400D01*
X134173653Y-136635400D02*
X134102224Y-136706828D01*
X134102224Y-136706828D02*
X134030796Y-136635400D01*
X134030796Y-136635400D02*
X134102224Y-136563971D01*
X134102224Y-136563971D02*
X134102224Y-136706828D01*
X135887939Y-136635400D02*
X136030796Y-136706828D01*
X136030796Y-136706828D02*
X136316510Y-136706828D01*
X136316510Y-136706828D02*
X136459367Y-136635400D01*
X136459367Y-136635400D02*
X136530796Y-136492542D01*
X136530796Y-136492542D02*
X136530796Y-136421114D01*
X136530796Y-136421114D02*
X136459367Y-136278257D01*
X136459367Y-136278257D02*
X136316510Y-136206828D01*
X136316510Y-136206828D02*
X136102225Y-136206828D01*
X136102225Y-136206828D02*
X135959367Y-136135400D01*
X135959367Y-136135400D02*
X135887939Y-135992542D01*
X135887939Y-135992542D02*
X135887939Y-135921114D01*
X135887939Y-135921114D02*
X135959367Y-135778257D01*
X135959367Y-135778257D02*
X136102225Y-135706828D01*
X136102225Y-135706828D02*
X136316510Y-135706828D01*
X136316510Y-135706828D02*
X136459367Y-135778257D01*
X137745082Y-136635400D02*
X137602225Y-136706828D01*
X137602225Y-136706828D02*
X137316511Y-136706828D01*
X137316511Y-136706828D02*
X137173653Y-136635400D01*
X137173653Y-136635400D02*
X137102225Y-136492542D01*
X137102225Y-136492542D02*
X137102225Y-135921114D01*
X137102225Y-135921114D02*
X137173653Y-135778257D01*
X137173653Y-135778257D02*
X137316511Y-135706828D01*
X137316511Y-135706828D02*
X137602225Y-135706828D01*
X137602225Y-135706828D02*
X137745082Y-135778257D01*
X137745082Y-135778257D02*
X137816511Y-135921114D01*
X137816511Y-135921114D02*
X137816511Y-136063971D01*
X137816511Y-136063971D02*
X137102225Y-136206828D01*
X138459367Y-135706828D02*
X138459367Y-136706828D01*
X138459367Y-135849685D02*
X138530796Y-135778257D01*
X138530796Y-135778257D02*
X138673653Y-135706828D01*
X138673653Y-135706828D02*
X138887939Y-135706828D01*
X138887939Y-135706828D02*
X139030796Y-135778257D01*
X139030796Y-135778257D02*
X139102225Y-135921114D01*
X139102225Y-135921114D02*
X139102225Y-136706828D01*
X139745082Y-136635400D02*
X139887939Y-136706828D01*
X139887939Y-136706828D02*
X140173653Y-136706828D01*
X140173653Y-136706828D02*
X140316510Y-136635400D01*
X140316510Y-136635400D02*
X140387939Y-136492542D01*
X140387939Y-136492542D02*
X140387939Y-136421114D01*
X140387939Y-136421114D02*
X140316510Y-136278257D01*
X140316510Y-136278257D02*
X140173653Y-136206828D01*
X140173653Y-136206828D02*
X139959368Y-136206828D01*
X139959368Y-136206828D02*
X139816510Y-136135400D01*
X139816510Y-136135400D02*
X139745082Y-135992542D01*
X139745082Y-135992542D02*
X139745082Y-135921114D01*
X139745082Y-135921114D02*
X139816510Y-135778257D01*
X139816510Y-135778257D02*
X139959368Y-135706828D01*
X139959368Y-135706828D02*
X140173653Y-135706828D01*
X140173653Y-135706828D02*
X140316510Y-135778257D01*
X141245082Y-136706828D02*
X141102225Y-136635400D01*
X141102225Y-136635400D02*
X141030796Y-136563971D01*
X141030796Y-136563971D02*
X140959368Y-136421114D01*
X140959368Y-136421114D02*
X140959368Y-135992542D01*
X140959368Y-135992542D02*
X141030796Y-135849685D01*
X141030796Y-135849685D02*
X141102225Y-135778257D01*
X141102225Y-135778257D02*
X141245082Y-135706828D01*
X141245082Y-135706828D02*
X141459368Y-135706828D01*
X141459368Y-135706828D02*
X141602225Y-135778257D01*
X141602225Y-135778257D02*
X141673654Y-135849685D01*
X141673654Y-135849685D02*
X141745082Y-135992542D01*
X141745082Y-135992542D02*
X141745082Y-136421114D01*
X141745082Y-136421114D02*
X141673654Y-136563971D01*
X141673654Y-136563971D02*
X141602225Y-136635400D01*
X141602225Y-136635400D02*
X141459368Y-136706828D01*
X141459368Y-136706828D02*
X141245082Y-136706828D01*
X142387939Y-136706828D02*
X142387939Y-135706828D01*
X142387939Y-135992542D02*
X142459368Y-135849685D01*
X142459368Y-135849685D02*
X142530797Y-135778257D01*
X142530797Y-135778257D02*
X142673654Y-135706828D01*
X142673654Y-135706828D02*
X142816511Y-135706828D01*
D11*
X133035922Y-142633819D02*
X133607350Y-142633819D01*
X133321636Y-143633819D02*
X133321636Y-142633819D01*
X134321636Y-143586200D02*
X134226398Y-143633819D01*
X134226398Y-143633819D02*
X134035922Y-143633819D01*
X134035922Y-143633819D02*
X133940684Y-143586200D01*
X133940684Y-143586200D02*
X133893065Y-143490961D01*
X133893065Y-143490961D02*
X133893065Y-143110009D01*
X133893065Y-143110009D02*
X133940684Y-143014771D01*
X133940684Y-143014771D02*
X134035922Y-142967152D01*
X134035922Y-142967152D02*
X134226398Y-142967152D01*
X134226398Y-142967152D02*
X134321636Y-143014771D01*
X134321636Y-143014771D02*
X134369255Y-143110009D01*
X134369255Y-143110009D02*
X134369255Y-143205247D01*
X134369255Y-143205247D02*
X133893065Y-143300485D01*
X134797827Y-143633819D02*
X134797827Y-142967152D01*
X134797827Y-143062390D02*
X134845446Y-143014771D01*
X134845446Y-143014771D02*
X134940684Y-142967152D01*
X134940684Y-142967152D02*
X135083541Y-142967152D01*
X135083541Y-142967152D02*
X135178779Y-143014771D01*
X135178779Y-143014771D02*
X135226398Y-143110009D01*
X135226398Y-143110009D02*
X135226398Y-143633819D01*
X135226398Y-143110009D02*
X135274017Y-143014771D01*
X135274017Y-143014771D02*
X135369255Y-142967152D01*
X135369255Y-142967152D02*
X135512112Y-142967152D01*
X135512112Y-142967152D02*
X135607351Y-143014771D01*
X135607351Y-143014771D02*
X135654970Y-143110009D01*
X135654970Y-143110009D02*
X135654970Y-143633819D01*
X136131160Y-142967152D02*
X136131160Y-143967152D01*
X136131160Y-143014771D02*
X136226398Y-142967152D01*
X136226398Y-142967152D02*
X136416874Y-142967152D01*
X136416874Y-142967152D02*
X136512112Y-143014771D01*
X136512112Y-143014771D02*
X136559731Y-143062390D01*
X136559731Y-143062390D02*
X136607350Y-143157628D01*
X136607350Y-143157628D02*
X136607350Y-143443342D01*
X136607350Y-143443342D02*
X136559731Y-143538580D01*
X136559731Y-143538580D02*
X136512112Y-143586200D01*
X136512112Y-143586200D02*
X136416874Y-143633819D01*
X136416874Y-143633819D02*
X136226398Y-143633819D01*
X136226398Y-143633819D02*
X136131160Y-143586200D01*
X137416874Y-143586200D02*
X137321636Y-143633819D01*
X137321636Y-143633819D02*
X137131160Y-143633819D01*
X137131160Y-143633819D02*
X137035922Y-143586200D01*
X137035922Y-143586200D02*
X136988303Y-143490961D01*
X136988303Y-143490961D02*
X136988303Y-143110009D01*
X136988303Y-143110009D02*
X137035922Y-143014771D01*
X137035922Y-143014771D02*
X137131160Y-142967152D01*
X137131160Y-142967152D02*
X137321636Y-142967152D01*
X137321636Y-142967152D02*
X137416874Y-143014771D01*
X137416874Y-143014771D02*
X137464493Y-143110009D01*
X137464493Y-143110009D02*
X137464493Y-143205247D01*
X137464493Y-143205247D02*
X136988303Y-143300485D01*
X137893065Y-143633819D02*
X137893065Y-142967152D01*
X137893065Y-143157628D02*
X137940684Y-143062390D01*
X137940684Y-143062390D02*
X137988303Y-143014771D01*
X137988303Y-143014771D02*
X138083541Y-142967152D01*
X138083541Y-142967152D02*
X138178779Y-142967152D01*
X138940684Y-143633819D02*
X138940684Y-143110009D01*
X138940684Y-143110009D02*
X138893065Y-143014771D01*
X138893065Y-143014771D02*
X138797827Y-142967152D01*
X138797827Y-142967152D02*
X138607351Y-142967152D01*
X138607351Y-142967152D02*
X138512113Y-143014771D01*
X138940684Y-143586200D02*
X138845446Y-143633819D01*
X138845446Y-143633819D02*
X138607351Y-143633819D01*
X138607351Y-143633819D02*
X138512113Y-143586200D01*
X138512113Y-143586200D02*
X138464494Y-143490961D01*
X138464494Y-143490961D02*
X138464494Y-143395723D01*
X138464494Y-143395723D02*
X138512113Y-143300485D01*
X138512113Y-143300485D02*
X138607351Y-143252866D01*
X138607351Y-143252866D02*
X138845446Y-143252866D01*
X138845446Y-143252866D02*
X138940684Y-143205247D01*
X139274018Y-142967152D02*
X139654970Y-142967152D01*
X139416875Y-142633819D02*
X139416875Y-143490961D01*
X139416875Y-143490961D02*
X139464494Y-143586200D01*
X139464494Y-143586200D02*
X139559732Y-143633819D01*
X139559732Y-143633819D02*
X139654970Y-143633819D01*
X140416875Y-142967152D02*
X140416875Y-143633819D01*
X139988304Y-142967152D02*
X139988304Y-143490961D01*
X139988304Y-143490961D02*
X140035923Y-143586200D01*
X140035923Y-143586200D02*
X140131161Y-143633819D01*
X140131161Y-143633819D02*
X140274018Y-143633819D01*
X140274018Y-143633819D02*
X140369256Y-143586200D01*
X140369256Y-143586200D02*
X140416875Y-143538580D01*
X140893066Y-143633819D02*
X140893066Y-142967152D01*
X140893066Y-143157628D02*
X140940685Y-143062390D01*
X140940685Y-143062390D02*
X140988304Y-143014771D01*
X140988304Y-143014771D02*
X141083542Y-142967152D01*
X141083542Y-142967152D02*
X141178780Y-142967152D01*
X141893066Y-143586200D02*
X141797828Y-143633819D01*
X141797828Y-143633819D02*
X141607352Y-143633819D01*
X141607352Y-143633819D02*
X141512114Y-143586200D01*
X141512114Y-143586200D02*
X141464495Y-143490961D01*
X141464495Y-143490961D02*
X141464495Y-143110009D01*
X141464495Y-143110009D02*
X141512114Y-143014771D01*
X141512114Y-143014771D02*
X141607352Y-142967152D01*
X141607352Y-142967152D02*
X141797828Y-142967152D01*
X141797828Y-142967152D02*
X141893066Y-143014771D01*
X141893066Y-143014771D02*
X141940685Y-143110009D01*
X141940685Y-143110009D02*
X141940685Y-143205247D01*
X141940685Y-143205247D02*
X141464495Y-143300485D01*
X143559733Y-143586200D02*
X143464495Y-143633819D01*
X143464495Y-143633819D02*
X143274019Y-143633819D01*
X143274019Y-143633819D02*
X143178781Y-143586200D01*
X143178781Y-143586200D02*
X143131162Y-143538580D01*
X143131162Y-143538580D02*
X143083543Y-143443342D01*
X143083543Y-143443342D02*
X143083543Y-143157628D01*
X143083543Y-143157628D02*
X143131162Y-143062390D01*
X143131162Y-143062390D02*
X143178781Y-143014771D01*
X143178781Y-143014771D02*
X143274019Y-142967152D01*
X143274019Y-142967152D02*
X143464495Y-142967152D01*
X143464495Y-142967152D02*
X143559733Y-143014771D01*
X144131162Y-143633819D02*
X144035924Y-143586200D01*
X144035924Y-143586200D02*
X143988305Y-143538580D01*
X143988305Y-143538580D02*
X143940686Y-143443342D01*
X143940686Y-143443342D02*
X143940686Y-143157628D01*
X143940686Y-143157628D02*
X143988305Y-143062390D01*
X143988305Y-143062390D02*
X144035924Y-143014771D01*
X144035924Y-143014771D02*
X144131162Y-142967152D01*
X144131162Y-142967152D02*
X144274019Y-142967152D01*
X144274019Y-142967152D02*
X144369257Y-143014771D01*
X144369257Y-143014771D02*
X144416876Y-143062390D01*
X144416876Y-143062390D02*
X144464495Y-143157628D01*
X144464495Y-143157628D02*
X144464495Y-143443342D01*
X144464495Y-143443342D02*
X144416876Y-143538580D01*
X144416876Y-143538580D02*
X144369257Y-143586200D01*
X144369257Y-143586200D02*
X144274019Y-143633819D01*
X144274019Y-143633819D02*
X144131162Y-143633819D01*
X144893067Y-142967152D02*
X144893067Y-143633819D01*
X144893067Y-143062390D02*
X144940686Y-143014771D01*
X144940686Y-143014771D02*
X145035924Y-142967152D01*
X145035924Y-142967152D02*
X145178781Y-142967152D01*
X145178781Y-142967152D02*
X145274019Y-143014771D01*
X145274019Y-143014771D02*
X145321638Y-143110009D01*
X145321638Y-143110009D02*
X145321638Y-143633819D01*
X145654972Y-142967152D02*
X146035924Y-142967152D01*
X145797829Y-142633819D02*
X145797829Y-143490961D01*
X145797829Y-143490961D02*
X145845448Y-143586200D01*
X145845448Y-143586200D02*
X145940686Y-143633819D01*
X145940686Y-143633819D02*
X146035924Y-143633819D01*
X146369258Y-143633819D02*
X146369258Y-142967152D01*
X146369258Y-143157628D02*
X146416877Y-143062390D01*
X146416877Y-143062390D02*
X146464496Y-143014771D01*
X146464496Y-143014771D02*
X146559734Y-142967152D01*
X146559734Y-142967152D02*
X146654972Y-142967152D01*
X147131163Y-143633819D02*
X147035925Y-143586200D01*
X147035925Y-143586200D02*
X146988306Y-143538580D01*
X146988306Y-143538580D02*
X146940687Y-143443342D01*
X146940687Y-143443342D02*
X146940687Y-143157628D01*
X146940687Y-143157628D02*
X146988306Y-143062390D01*
X146988306Y-143062390D02*
X147035925Y-143014771D01*
X147035925Y-143014771D02*
X147131163Y-142967152D01*
X147131163Y-142967152D02*
X147274020Y-142967152D01*
X147274020Y-142967152D02*
X147369258Y-143014771D01*
X147369258Y-143014771D02*
X147416877Y-143062390D01*
X147416877Y-143062390D02*
X147464496Y-143157628D01*
X147464496Y-143157628D02*
X147464496Y-143443342D01*
X147464496Y-143443342D02*
X147416877Y-143538580D01*
X147416877Y-143538580D02*
X147369258Y-143586200D01*
X147369258Y-143586200D02*
X147274020Y-143633819D01*
X147274020Y-143633819D02*
X147131163Y-143633819D01*
X148035925Y-143633819D02*
X147940687Y-143586200D01*
X147940687Y-143586200D02*
X147893068Y-143490961D01*
X147893068Y-143490961D02*
X147893068Y-142633819D01*
X149083545Y-142967152D02*
X149321640Y-143633819D01*
X149321640Y-143633819D02*
X149559735Y-142967152D01*
X149845450Y-142633819D02*
X150512116Y-142633819D01*
X150512116Y-142633819D02*
X150083545Y-143633819D01*
D12*
X116452419Y-132899535D02*
X116466838Y-132944868D01*
X116486921Y-133145617D01*
X116507005Y-133346367D01*
X116268274Y-133332878D01*
X116029543Y-133319388D01*
X116076234Y-133775121D01*
X116123980Y-133827880D01*
X116171727Y-133880639D01*
X116135289Y-133917076D01*
X116098853Y-133953514D01*
X116170060Y-134596975D01*
X116241268Y-135240436D01*
X116292420Y-135279051D01*
X116343573Y-135317667D01*
X116283056Y-135334878D01*
X116222538Y-135352090D01*
X116010317Y-135374883D01*
X115798094Y-135397676D01*
X115824117Y-135355571D01*
X115850138Y-135313467D01*
X115844378Y-135160509D01*
X115838618Y-135007552D01*
X115778290Y-134518608D01*
X115717963Y-134029665D01*
X115673903Y-133976575D01*
X115629842Y-133923486D01*
X115666993Y-133886335D01*
X115704144Y-133849184D01*
X115686724Y-133696448D01*
X115669304Y-133543711D01*
X115637590Y-133388134D01*
X115464297Y-133411427D01*
X115291004Y-133434720D01*
X115248613Y-133469005D01*
X115206223Y-133503290D01*
X115193674Y-133490232D01*
X115181125Y-133477174D01*
X115157894Y-133257843D01*
X115134663Y-133038512D01*
X115458859Y-133017216D01*
X115783054Y-132995920D01*
X116069335Y-132957143D01*
X116355616Y-132918365D01*
X116396808Y-132886283D01*
X116438000Y-132854201D01*
X116452419Y-132899535D01*
G36*
X116452419Y-132899535D02*
G01*
X116466838Y-132944868D01*
X116486921Y-133145617D01*
X116507005Y-133346367D01*
X116268274Y-133332878D01*
X116029543Y-133319388D01*
X116076234Y-133775121D01*
X116123980Y-133827880D01*
X116171727Y-133880639D01*
X116135289Y-133917076D01*
X116098853Y-133953514D01*
X116170060Y-134596975D01*
X116241268Y-135240436D01*
X116292420Y-135279051D01*
X116343573Y-135317667D01*
X116283056Y-135334878D01*
X116222538Y-135352090D01*
X116010317Y-135374883D01*
X115798094Y-135397676D01*
X115824117Y-135355571D01*
X115850138Y-135313467D01*
X115844378Y-135160509D01*
X115838618Y-135007552D01*
X115778290Y-134518608D01*
X115717963Y-134029665D01*
X115673903Y-133976575D01*
X115629842Y-133923486D01*
X115666993Y-133886335D01*
X115704144Y-133849184D01*
X115686724Y-133696448D01*
X115669304Y-133543711D01*
X115637590Y-133388134D01*
X115464297Y-133411427D01*
X115291004Y-133434720D01*
X115248613Y-133469005D01*
X115206223Y-133503290D01*
X115193674Y-133490232D01*
X115181125Y-133477174D01*
X115157894Y-133257843D01*
X115134663Y-133038512D01*
X115458859Y-133017216D01*
X115783054Y-132995920D01*
X116069335Y-132957143D01*
X116355616Y-132918365D01*
X116396808Y-132886283D01*
X116438000Y-132854201D01*
X116452419Y-132899535D01*
G37*
X117508571Y-132944951D02*
X117752918Y-132969053D01*
X117778125Y-132984034D01*
X117803332Y-132999015D01*
X117759637Y-133042709D01*
X117715943Y-133086403D01*
X117674527Y-133442698D01*
X117633111Y-133798993D01*
X117671366Y-133845088D01*
X117709621Y-133891183D01*
X117656414Y-133944391D01*
X117603206Y-133997598D01*
X117602485Y-134036808D01*
X117601765Y-134076018D01*
X117509799Y-134941015D01*
X117519193Y-134950817D01*
X117528586Y-134960619D01*
X117906923Y-135004641D01*
X118285261Y-135048663D01*
X118346331Y-135017095D01*
X118407401Y-134985527D01*
X118418928Y-134997054D01*
X118430455Y-135008582D01*
X118402341Y-135235281D01*
X118374226Y-135461981D01*
X118362735Y-135473472D01*
X118351244Y-135484963D01*
X118301617Y-135457909D01*
X118301580Y-135457908D01*
X118251954Y-135430854D01*
X117752917Y-135375462D01*
X117253881Y-135320071D01*
X117127979Y-135300769D01*
X117002077Y-135281469D01*
X117049167Y-135227682D01*
X117096257Y-135173897D01*
X117166676Y-134561736D01*
X117237095Y-133949576D01*
X117199828Y-133904671D01*
X117162562Y-133859767D01*
X117206637Y-133806659D01*
X117250713Y-133753551D01*
X117290659Y-133399218D01*
X117330605Y-133044884D01*
X117297414Y-132982867D01*
X117264223Y-132920849D01*
X117508571Y-132944951D01*
G36*
X117508571Y-132944951D02*
G01*
X117752918Y-132969053D01*
X117778125Y-132984034D01*
X117803332Y-132999015D01*
X117759637Y-133042709D01*
X117715943Y-133086403D01*
X117674527Y-133442698D01*
X117633111Y-133798993D01*
X117671366Y-133845088D01*
X117709621Y-133891183D01*
X117656414Y-133944391D01*
X117603206Y-133997598D01*
X117602485Y-134036808D01*
X117601765Y-134076018D01*
X117509799Y-134941015D01*
X117519193Y-134950817D01*
X117528586Y-134960619D01*
X117906923Y-135004641D01*
X118285261Y-135048663D01*
X118346331Y-135017095D01*
X118407401Y-134985527D01*
X118418928Y-134997054D01*
X118430455Y-135008582D01*
X118402341Y-135235281D01*
X118374226Y-135461981D01*
X118362735Y-135473472D01*
X118351244Y-135484963D01*
X118301617Y-135457909D01*
X118301580Y-135457908D01*
X118251954Y-135430854D01*
X117752917Y-135375462D01*
X117253881Y-135320071D01*
X117127979Y-135300769D01*
X117002077Y-135281469D01*
X117049167Y-135227682D01*
X117096257Y-135173897D01*
X117166676Y-134561736D01*
X117237095Y-133949576D01*
X117199828Y-133904671D01*
X117162562Y-133859767D01*
X117206637Y-133806659D01*
X117250713Y-133753551D01*
X117290659Y-133399218D01*
X117330605Y-133044884D01*
X117297414Y-132982867D01*
X117264223Y-132920849D01*
X117508571Y-132944951D01*
G37*
X113877067Y-133524632D02*
X114082483Y-133841511D01*
X114287899Y-134158390D01*
X114348636Y-134177667D01*
X114409373Y-134196944D01*
X114410397Y-134342171D01*
X114726541Y-134824573D01*
X115042684Y-135306974D01*
X115127203Y-135381911D01*
X115211722Y-135456849D01*
X115134916Y-135486082D01*
X115058112Y-135515315D01*
X114929290Y-135569173D01*
X114800468Y-135623031D01*
X114710877Y-135623031D01*
X114727128Y-135580682D01*
X114743379Y-135538332D01*
X114645207Y-135383531D01*
X114547035Y-135228730D01*
X114002323Y-135435680D01*
X114021715Y-135599416D01*
X114041107Y-135763152D01*
X114080267Y-135810337D01*
X114119428Y-135857522D01*
X114106370Y-135868841D01*
X114093312Y-135880162D01*
X113900767Y-135951210D01*
X113708221Y-136022260D01*
X113642911Y-136022260D01*
X113661683Y-135947403D01*
X113680449Y-135872547D01*
X113597066Y-135257565D01*
X113513683Y-134642582D01*
X113463649Y-134605997D01*
X113413616Y-134569411D01*
X113451251Y-134531775D01*
X113488887Y-134494140D01*
X113463168Y-134263396D01*
X113836788Y-134263396D01*
X113913447Y-134807937D01*
X113932229Y-134916061D01*
X113951011Y-135024186D01*
X113998292Y-135024186D01*
X114153928Y-134971155D01*
X114309566Y-134918124D01*
X114309566Y-134857287D01*
X114086082Y-134521626D01*
X113862597Y-134185965D01*
X113836788Y-134263396D01*
X113463168Y-134263396D01*
X113445917Y-134108616D01*
X113402947Y-133723091D01*
X113356964Y-133677109D01*
X113310982Y-133631127D01*
X113337564Y-133614699D01*
X113364146Y-133598271D01*
X113591298Y-133512771D01*
X113818451Y-133427271D01*
X113877067Y-133427271D01*
X113877067Y-133524632D01*
G36*
X113877067Y-133524632D02*
G01*
X114082483Y-133841511D01*
X114287899Y-134158390D01*
X114348636Y-134177667D01*
X114409373Y-134196944D01*
X114410397Y-134342171D01*
X114726541Y-134824573D01*
X115042684Y-135306974D01*
X115127203Y-135381911D01*
X115211722Y-135456849D01*
X115134916Y-135486082D01*
X115058112Y-135515315D01*
X114929290Y-135569173D01*
X114800468Y-135623031D01*
X114710877Y-135623031D01*
X114727128Y-135580682D01*
X114743379Y-135538332D01*
X114645207Y-135383531D01*
X114547035Y-135228730D01*
X114002323Y-135435680D01*
X114021715Y-135599416D01*
X114041107Y-135763152D01*
X114080267Y-135810337D01*
X114119428Y-135857522D01*
X114106370Y-135868841D01*
X114093312Y-135880162D01*
X113900767Y-135951210D01*
X113708221Y-136022260D01*
X113642911Y-136022260D01*
X113661683Y-135947403D01*
X113680449Y-135872547D01*
X113597066Y-135257565D01*
X113513683Y-134642582D01*
X113463649Y-134605997D01*
X113413616Y-134569411D01*
X113451251Y-134531775D01*
X113488887Y-134494140D01*
X113463168Y-134263396D01*
X113836788Y-134263396D01*
X113913447Y-134807937D01*
X113932229Y-134916061D01*
X113951011Y-135024186D01*
X113998292Y-135024186D01*
X114153928Y-134971155D01*
X114309566Y-134918124D01*
X114309566Y-134857287D01*
X114086082Y-134521626D01*
X113862597Y-134185965D01*
X113836788Y-134263396D01*
X113463168Y-134263396D01*
X113445917Y-134108616D01*
X113402947Y-133723091D01*
X113356964Y-133677109D01*
X113310982Y-133631127D01*
X113337564Y-133614699D01*
X113364146Y-133598271D01*
X113591298Y-133512771D01*
X113818451Y-133427271D01*
X113877067Y-133427271D01*
X113877067Y-133524632D01*
G37*
X120186530Y-133532782D02*
X120464322Y-133638302D01*
X120418054Y-133690810D01*
X120371785Y-133743318D01*
X120321725Y-134092644D01*
X120271666Y-134441969D01*
X120302458Y-134499851D01*
X120333250Y-134557734D01*
X120240945Y-134708123D01*
X120167464Y-135257063D01*
X120093984Y-135806003D01*
X120081259Y-135869602D01*
X120068536Y-135933202D01*
X120101266Y-135994361D01*
X120133998Y-136055520D01*
X120091241Y-136052304D01*
X120048485Y-136049088D01*
X119842676Y-135964724D01*
X119636870Y-135880356D01*
X119727365Y-135739471D01*
X119738214Y-135594921D01*
X119749063Y-135450372D01*
X119516179Y-135355461D01*
X119283295Y-135260550D01*
X119242908Y-135258807D01*
X119202521Y-135257063D01*
X119118149Y-135381228D01*
X119033776Y-135505392D01*
X119033776Y-135655720D01*
X118815572Y-135573588D01*
X118597368Y-135491456D01*
X118560367Y-135468588D01*
X118523365Y-135445720D01*
X118594225Y-135419507D01*
X118665085Y-135393294D01*
X118982098Y-134918348D01*
X119429305Y-134918348D01*
X119605818Y-134986169D01*
X119782331Y-135053988D01*
X119799528Y-135055724D01*
X119816724Y-135057460D01*
X119873273Y-134634937D01*
X119929822Y-134212419D01*
X119919511Y-134202108D01*
X119909201Y-134191797D01*
X119544352Y-134741399D01*
X119486829Y-134829873D01*
X119429305Y-134918348D01*
X118982098Y-134918348D01*
X119015777Y-134867890D01*
X119366469Y-134342487D01*
X119366469Y-134192452D01*
X119456960Y-134192452D01*
X119682414Y-133862334D01*
X119907868Y-133532217D01*
X119887731Y-133479740D01*
X119867593Y-133427262D01*
X119908738Y-133427262D01*
X120186530Y-133532782D01*
G36*
X120186530Y-133532782D02*
G01*
X120464322Y-133638302D01*
X120418054Y-133690810D01*
X120371785Y-133743318D01*
X120321725Y-134092644D01*
X120271666Y-134441969D01*
X120302458Y-134499851D01*
X120333250Y-134557734D01*
X120240945Y-134708123D01*
X120167464Y-135257063D01*
X120093984Y-135806003D01*
X120081259Y-135869602D01*
X120068536Y-135933202D01*
X120101266Y-135994361D01*
X120133998Y-136055520D01*
X120091241Y-136052304D01*
X120048485Y-136049088D01*
X119842676Y-135964724D01*
X119636870Y-135880356D01*
X119727365Y-135739471D01*
X119738214Y-135594921D01*
X119749063Y-135450372D01*
X119516179Y-135355461D01*
X119283295Y-135260550D01*
X119242908Y-135258807D01*
X119202521Y-135257063D01*
X119118149Y-135381228D01*
X119033776Y-135505392D01*
X119033776Y-135655720D01*
X118815572Y-135573588D01*
X118597368Y-135491456D01*
X118560367Y-135468588D01*
X118523365Y-135445720D01*
X118594225Y-135419507D01*
X118665085Y-135393294D01*
X118982098Y-134918348D01*
X119429305Y-134918348D01*
X119605818Y-134986169D01*
X119782331Y-135053988D01*
X119799528Y-135055724D01*
X119816724Y-135057460D01*
X119873273Y-134634937D01*
X119929822Y-134212419D01*
X119919511Y-134202108D01*
X119909201Y-134191797D01*
X119544352Y-134741399D01*
X119486829Y-134829873D01*
X119429305Y-134918348D01*
X118982098Y-134918348D01*
X119015777Y-134867890D01*
X119366469Y-134342487D01*
X119366469Y-134192452D01*
X119456960Y-134192452D01*
X119682414Y-133862334D01*
X119907868Y-133532217D01*
X119887731Y-133479740D01*
X119867593Y-133427262D01*
X119908738Y-133427262D01*
X120186530Y-133532782D01*
G37*
X122177803Y-134572960D02*
X122576885Y-134858760D01*
X122651740Y-134943361D01*
X122726596Y-135027961D01*
X122726596Y-135280476D01*
X122540174Y-135543275D01*
X122353752Y-135806074D01*
X122303670Y-135845658D01*
X122253587Y-135885241D01*
X122247875Y-136028838D01*
X122242164Y-136172436D01*
X121998398Y-136513864D01*
X121754632Y-136855292D01*
X121684271Y-136904574D01*
X121613909Y-136953857D01*
X121402518Y-136953857D01*
X121241147Y-136845254D01*
X121241198Y-136845190D01*
X121079827Y-136736587D01*
X120738819Y-136489149D01*
X120397811Y-136241712D01*
X120397811Y-136188605D01*
X120439398Y-136187884D01*
X120480985Y-136187164D01*
X120483617Y-136183517D01*
X120962602Y-136183517D01*
X121202318Y-136352406D01*
X121442033Y-136521294D01*
X121523118Y-136521294D01*
X121675750Y-136307402D01*
X121828381Y-136093508D01*
X121828381Y-135994830D01*
X121620449Y-135847941D01*
X121412516Y-135701051D01*
X121374089Y-135678663D01*
X121335660Y-135656275D01*
X121171334Y-135880853D01*
X121007007Y-136105431D01*
X120984804Y-136144474D01*
X120962602Y-136183517D01*
X120483617Y-136183517D01*
X120846679Y-135680562D01*
X121096852Y-135333995D01*
X121563986Y-135333995D01*
X121765967Y-135476222D01*
X121967949Y-135618450D01*
X122006290Y-135602443D01*
X122044631Y-135586435D01*
X122169389Y-135407111D01*
X122294149Y-135227788D01*
X122294149Y-135129660D01*
X122136120Y-135015675D01*
X121978091Y-134901692D01*
X121939048Y-134879374D01*
X121900006Y-134857057D01*
X121731995Y-135095526D01*
X121563986Y-135333995D01*
X121096852Y-135333995D01*
X121212374Y-135173961D01*
X121212614Y-135100624D01*
X121212855Y-135027288D01*
X121279393Y-135009803D01*
X121345931Y-134992319D01*
X121545545Y-134706885D01*
X121745159Y-134421451D01*
X121761940Y-134354305D01*
X121778721Y-134287160D01*
X122177803Y-134572960D01*
G36*
X122177803Y-134572960D02*
G01*
X122576885Y-134858760D01*
X122651740Y-134943361D01*
X122726596Y-135027961D01*
X122726596Y-135280476D01*
X122540174Y-135543275D01*
X122353752Y-135806074D01*
X122303670Y-135845658D01*
X122253587Y-135885241D01*
X122247875Y-136028838D01*
X122242164Y-136172436D01*
X121998398Y-136513864D01*
X121754632Y-136855292D01*
X121684271Y-136904574D01*
X121613909Y-136953857D01*
X121402518Y-136953857D01*
X121241147Y-136845254D01*
X121241198Y-136845190D01*
X121079827Y-136736587D01*
X120738819Y-136489149D01*
X120397811Y-136241712D01*
X120397811Y-136188605D01*
X120439398Y-136187884D01*
X120480985Y-136187164D01*
X120483617Y-136183517D01*
X120962602Y-136183517D01*
X121202318Y-136352406D01*
X121442033Y-136521294D01*
X121523118Y-136521294D01*
X121675750Y-136307402D01*
X121828381Y-136093508D01*
X121828381Y-135994830D01*
X121620449Y-135847941D01*
X121412516Y-135701051D01*
X121374089Y-135678663D01*
X121335660Y-135656275D01*
X121171334Y-135880853D01*
X121007007Y-136105431D01*
X120984804Y-136144474D01*
X120962602Y-136183517D01*
X120483617Y-136183517D01*
X120846679Y-135680562D01*
X121096852Y-135333995D01*
X121563986Y-135333995D01*
X121765967Y-135476222D01*
X121967949Y-135618450D01*
X122006290Y-135602443D01*
X122044631Y-135586435D01*
X122169389Y-135407111D01*
X122294149Y-135227788D01*
X122294149Y-135129660D01*
X122136120Y-135015675D01*
X121978091Y-134901692D01*
X121939048Y-134879374D01*
X121900006Y-134857057D01*
X121731995Y-135095526D01*
X121563986Y-135333995D01*
X121096852Y-135333995D01*
X121212374Y-135173961D01*
X121212614Y-135100624D01*
X121212855Y-135027288D01*
X121279393Y-135009803D01*
X121345931Y-134992319D01*
X121545545Y-134706885D01*
X121745159Y-134421451D01*
X121761940Y-134354305D01*
X121778721Y-134287160D01*
X122177803Y-134572960D01*
G37*
X112014000Y-134366000D02*
X112221932Y-134661521D01*
X112429864Y-134957043D01*
X112488084Y-134976222D01*
X112546305Y-134995401D01*
X112546305Y-135112080D01*
X112914591Y-135625390D01*
X113282876Y-136138700D01*
X113330454Y-136149457D01*
X113378033Y-136160214D01*
X113378033Y-136210813D01*
X113023838Y-136454757D01*
X112978804Y-136454757D01*
X112978804Y-136380114D01*
X112651006Y-135919529D01*
X112323208Y-135458944D01*
X112115421Y-135605259D01*
X111907636Y-135751575D01*
X111891093Y-135768117D01*
X111874551Y-135784659D01*
X112211280Y-136250296D01*
X112548009Y-136715932D01*
X112584396Y-136728062D01*
X112620783Y-136740191D01*
X112249739Y-137020331D01*
X112213614Y-137020331D01*
X112212973Y-136962110D01*
X112212333Y-136903890D01*
X111852853Y-136404853D01*
X111493373Y-135905816D01*
X111347704Y-135839741D01*
X111363028Y-135799809D01*
X111378351Y-135759876D01*
X111244604Y-135566694D01*
X111110856Y-135373511D01*
X110940547Y-135123993D01*
X110849582Y-135123993D01*
X110849582Y-135068514D01*
X111026679Y-134946543D01*
X111203777Y-134824571D01*
X111248811Y-134824571D01*
X111248811Y-134897613D01*
X111437641Y-135168831D01*
X111626471Y-135440049D01*
X111637198Y-135453854D01*
X111647925Y-135467659D01*
X111863440Y-135320777D01*
X112078954Y-135173896D01*
X112079746Y-135148435D01*
X112080538Y-135122973D01*
X111738250Y-134641592D01*
X111675261Y-134585343D01*
X111612271Y-134529095D01*
X111977890Y-134258997D01*
X112014000Y-134258997D01*
X112014000Y-134366000D01*
G36*
X112014000Y-134366000D02*
G01*
X112221932Y-134661521D01*
X112429864Y-134957043D01*
X112488084Y-134976222D01*
X112546305Y-134995401D01*
X112546305Y-135112080D01*
X112914591Y-135625390D01*
X113282876Y-136138700D01*
X113330454Y-136149457D01*
X113378033Y-136160214D01*
X113378033Y-136210813D01*
X113023838Y-136454757D01*
X112978804Y-136454757D01*
X112978804Y-136380114D01*
X112651006Y-135919529D01*
X112323208Y-135458944D01*
X112115421Y-135605259D01*
X111907636Y-135751575D01*
X111891093Y-135768117D01*
X111874551Y-135784659D01*
X112211280Y-136250296D01*
X112548009Y-136715932D01*
X112584396Y-136728062D01*
X112620783Y-136740191D01*
X112249739Y-137020331D01*
X112213614Y-137020331D01*
X112212973Y-136962110D01*
X112212333Y-136903890D01*
X111852853Y-136404853D01*
X111493373Y-135905816D01*
X111347704Y-135839741D01*
X111363028Y-135799809D01*
X111378351Y-135759876D01*
X111244604Y-135566694D01*
X111110856Y-135373511D01*
X110940547Y-135123993D01*
X110849582Y-135123993D01*
X110849582Y-135068514D01*
X111026679Y-134946543D01*
X111203777Y-134824571D01*
X111248811Y-134824571D01*
X111248811Y-134897613D01*
X111437641Y-135168831D01*
X111626471Y-135440049D01*
X111637198Y-135453854D01*
X111647925Y-135467659D01*
X111863440Y-135320777D01*
X112078954Y-135173896D01*
X112079746Y-135148435D01*
X112080538Y-135122973D01*
X111738250Y-134641592D01*
X111675261Y-134585343D01*
X111612271Y-134529095D01*
X111977890Y-134258997D01*
X112014000Y-134258997D01*
X112014000Y-134366000D01*
G37*
X117293239Y-135671886D02*
X117405013Y-135692856D01*
X117520925Y-135794627D01*
X117636837Y-135896399D01*
X117821134Y-136209546D01*
X118005431Y-136522693D01*
X118262624Y-136796467D01*
X118519816Y-137070241D01*
X118609798Y-137188967D01*
X118699781Y-137307693D01*
X118751812Y-137455121D01*
X118803845Y-137602547D01*
X118868908Y-138045188D01*
X118933970Y-138487828D01*
X118933970Y-138783602D01*
X118874069Y-138783602D01*
X118837014Y-138625574D01*
X118799957Y-138467545D01*
X118749484Y-138101585D01*
X118699012Y-137735626D01*
X118663293Y-137602550D01*
X118627574Y-137469472D01*
X118576411Y-137369665D01*
X118525247Y-137269858D01*
X118250447Y-136980445D01*
X117975646Y-136691032D01*
X117666494Y-136205246D01*
X117568873Y-136046947D01*
X117471253Y-135888648D01*
X117357760Y-135834527D01*
X117244268Y-135780406D01*
X117164971Y-135800309D01*
X117085674Y-135820211D01*
X116894473Y-135968682D01*
X116703272Y-136117153D01*
X116607746Y-136138133D01*
X116512220Y-136159115D01*
X116396575Y-136110795D01*
X116280931Y-136062476D01*
X116106608Y-135942563D01*
X115932287Y-135822663D01*
X115696567Y-135822663D01*
X115576959Y-135948879D01*
X115457352Y-136075096D01*
X115377202Y-136273253D01*
X115297051Y-136471410D01*
X115131724Y-136804101D01*
X114966397Y-137136792D01*
X114819022Y-137396894D01*
X114671647Y-137656997D01*
X114605239Y-137912566D01*
X114538831Y-138168136D01*
X114518984Y-138592317D01*
X114499136Y-139016498D01*
X114600864Y-139016498D01*
X114680531Y-138983211D01*
X114941680Y-138983211D01*
X115004291Y-138983211D01*
X115026826Y-138946750D01*
X115049360Y-138910289D01*
X115001191Y-138862120D01*
X115208367Y-138862120D01*
X115263345Y-138922870D01*
X115318322Y-138983618D01*
X115329847Y-138972093D01*
X115341371Y-138960569D01*
X115319358Y-138850504D01*
X115297344Y-138740438D01*
X115252856Y-138801279D01*
X115208367Y-138862120D01*
X115001191Y-138862120D01*
X114995519Y-138856449D01*
X114941680Y-138802608D01*
X114941680Y-138983211D01*
X114680531Y-138983211D01*
X114718076Y-138967524D01*
X114835286Y-138918551D01*
X114809137Y-138802608D01*
X114789854Y-138717106D01*
X115004291Y-138717106D01*
X115024853Y-138750375D01*
X115045414Y-138783644D01*
X115133148Y-138783644D01*
X115178808Y-138727971D01*
X115178807Y-138727921D01*
X115224467Y-138672247D01*
X115058121Y-138716146D01*
X115031206Y-138716626D01*
X115004291Y-138717106D01*
X114789854Y-138717106D01*
X114782264Y-138683453D01*
X114817347Y-138661770D01*
X114852430Y-138640088D01*
X115055084Y-138596578D01*
X115257738Y-138553069D01*
X115371165Y-138550732D01*
X115415896Y-138789167D01*
X115486528Y-138770211D01*
X115557160Y-138751255D01*
X115591309Y-138750775D01*
X115625457Y-138750295D01*
X115617754Y-138669529D01*
X115610339Y-138591777D01*
X115805001Y-138591777D01*
X115843181Y-138637782D01*
X115881362Y-138683786D01*
X115926445Y-138683786D01*
X115966368Y-138643863D01*
X116006291Y-138603940D01*
X116006291Y-138562234D01*
X115805001Y-138591777D01*
X115610339Y-138591777D01*
X115600945Y-138493269D01*
X115869699Y-138469825D01*
X116138453Y-138446382D01*
X116172181Y-138467225D01*
X116205908Y-138488070D01*
X116205908Y-138683757D01*
X116434775Y-138683757D01*
X116440954Y-138609101D01*
X116445101Y-138558999D01*
X116448540Y-138517441D01*
X116671672Y-138517441D01*
X116671672Y-138572890D01*
X116693853Y-138595069D01*
X116716031Y-138617248D01*
X116796602Y-138617248D01*
X116838018Y-138567345D01*
X116879434Y-138517441D01*
X116671672Y-138517441D01*
X116448540Y-138517441D01*
X116455426Y-138434239D01*
X117033468Y-138415074D01*
X117043869Y-138541098D01*
X117054270Y-138667123D01*
X117320423Y-138667123D01*
X117325445Y-138606159D01*
X117436861Y-138606159D01*
X117436861Y-138825010D01*
X117530874Y-138746986D01*
X117692095Y-138746986D01*
X117734897Y-138798559D01*
X117777699Y-138850132D01*
X117802822Y-138850132D01*
X117802822Y-138636260D01*
X117747459Y-138691622D01*
X117692095Y-138746986D01*
X117530874Y-138746986D01*
X117537488Y-138741496D01*
X117496589Y-138687690D01*
X117455689Y-138633883D01*
X117446274Y-138620021D01*
X117436861Y-138606159D01*
X117325445Y-138606159D01*
X117330013Y-138550710D01*
X117528522Y-138550710D01*
X117569938Y-138600614D01*
X117611354Y-138650517D01*
X117661599Y-138650517D01*
X117703015Y-138600614D01*
X117744431Y-138550710D01*
X117528522Y-138550710D01*
X117330013Y-138550710D01*
X117330874Y-138540263D01*
X117341324Y-138413404D01*
X117613662Y-138436383D01*
X117885999Y-138459361D01*
X117910950Y-138473716D01*
X117935901Y-138488070D01*
X117935901Y-138676638D01*
X117988526Y-138696832D01*
X118041150Y-138717026D01*
X118165770Y-138717026D01*
X118174680Y-138669529D01*
X118268589Y-138669529D01*
X118268589Y-138897661D01*
X118325622Y-138840628D01*
X118341010Y-138825240D01*
X118536883Y-138825240D01*
X118571777Y-138890440D01*
X118606671Y-138955641D01*
X118615831Y-138944474D01*
X118624992Y-138933307D01*
X118646649Y-138819807D01*
X118668305Y-138706305D01*
X118602594Y-138765772D01*
X118536883Y-138825240D01*
X118341010Y-138825240D01*
X118382655Y-138783596D01*
X118325622Y-138726561D01*
X118268589Y-138669529D01*
X118174680Y-138669529D01*
X118184489Y-138617247D01*
X118403754Y-138617247D01*
X118423530Y-138668784D01*
X118443307Y-138720321D01*
X118494584Y-138710371D01*
X118545863Y-138700421D01*
X118559709Y-138658834D01*
X118573555Y-138617247D01*
X118403754Y-138617247D01*
X118184489Y-138617247D01*
X118187615Y-138600583D01*
X118209459Y-138484142D01*
X118356179Y-138484142D01*
X118553586Y-138520615D01*
X118750993Y-138557088D01*
X118771608Y-138569803D01*
X118792225Y-138582518D01*
X118767901Y-138715532D01*
X118743577Y-138848546D01*
X118807103Y-138868708D01*
X118870628Y-138888869D01*
X118916976Y-138850405D01*
X118963323Y-138811941D01*
X119380850Y-138201357D01*
X119540519Y-138041230D01*
X119700190Y-137881105D01*
X119853931Y-137813098D01*
X120007672Y-137745090D01*
X120390289Y-137710395D01*
X120768284Y-137829289D01*
X120930510Y-137975144D01*
X121092735Y-138120997D01*
X121167448Y-138310887D01*
X121242160Y-138500777D01*
X121241192Y-138949911D01*
X121240224Y-139399044D01*
X121185794Y-139606466D01*
X121131364Y-139813887D01*
X120954064Y-140164233D01*
X120743829Y-140370558D01*
X120533593Y-140576882D01*
X120257767Y-140709376D01*
X119981942Y-140841870D01*
X119777525Y-140893963D01*
X119573109Y-140946057D01*
X119253348Y-140946057D01*
X119284953Y-140916072D01*
X119316559Y-140886086D01*
X119649250Y-140796626D01*
X119981942Y-140707165D01*
X120482867Y-140447275D01*
X120805689Y-140130962D01*
X120882283Y-140014520D01*
X120958876Y-139898078D01*
X121032474Y-139681828D01*
X121106070Y-139465580D01*
X121109582Y-138983179D01*
X121113094Y-138500776D01*
X121036614Y-138334846D01*
X120960134Y-138168915D01*
X120886904Y-138090406D01*
X120813674Y-138011899D01*
X120680598Y-137940857D01*
X120547520Y-137869815D01*
X120015215Y-137869815D01*
X119882139Y-137941407D01*
X119749062Y-138013000D01*
X119595750Y-138173716D01*
X119442438Y-138334432D01*
X119224067Y-138651527D01*
X119005695Y-138968622D01*
X118828439Y-139134220D01*
X118651183Y-139299818D01*
X118484838Y-139419418D01*
X118551377Y-139398587D01*
X118617916Y-139377757D01*
X118884068Y-139313290D01*
X119150220Y-139248822D01*
X119435054Y-139227905D01*
X119719887Y-139206988D01*
X119843751Y-139265766D01*
X119967614Y-139324543D01*
X120000904Y-139386745D01*
X120034193Y-139448948D01*
X119962972Y-139448948D01*
X119879545Y-139394286D01*
X119796120Y-139339623D01*
X119473171Y-139358247D01*
X119150220Y-139376872D01*
X118617916Y-139516838D01*
X118085610Y-139656804D01*
X117686380Y-139758142D01*
X117287152Y-139859480D01*
X116422155Y-139860295D01*
X115557158Y-139861111D01*
X115108026Y-139786897D01*
X114843249Y-139743146D01*
X115756772Y-139743146D01*
X115820538Y-139745770D01*
X115884303Y-139748395D01*
X115864203Y-139728293D01*
X115864204Y-139728299D01*
X115844103Y-139708199D01*
X115756772Y-139743146D01*
X114843249Y-139743146D01*
X114658893Y-139712683D01*
X114337299Y-139674283D01*
X114015704Y-139635884D01*
X113780537Y-139672284D01*
X113545369Y-139708685D01*
X113396074Y-139780957D01*
X113246779Y-139853230D01*
X113212599Y-139832106D01*
X113178419Y-139810984D01*
X113178419Y-139749724D01*
X113305173Y-139685058D01*
X113431928Y-139620393D01*
X113634349Y-139567940D01*
X113836770Y-139515488D01*
X114031582Y-139515808D01*
X114226395Y-139516128D01*
X114731890Y-139596817D01*
X115237386Y-139677506D01*
X115480445Y-139697379D01*
X115723503Y-139717252D01*
X115092351Y-139545138D01*
X114899615Y-139467289D01*
X114706881Y-139389439D01*
X114524859Y-139279122D01*
X114342837Y-139168806D01*
X114330368Y-139157351D01*
X114572035Y-139157351D01*
X114632096Y-139197018D01*
X114692157Y-139236684D01*
X114894194Y-139325419D01*
X115096232Y-139414153D01*
X115417350Y-139499621D01*
X115738469Y-139585090D01*
X116063675Y-139629555D01*
X116388880Y-139674021D01*
X116838013Y-139677508D01*
X117287145Y-139680996D01*
X117599705Y-139616504D01*
X117599708Y-139616495D01*
X117912267Y-139552003D01*
X118219307Y-139399623D01*
X118526346Y-139247242D01*
X118581596Y-139186192D01*
X118629806Y-139132922D01*
X118656536Y-139132922D01*
X118728715Y-139069544D01*
X118800895Y-139006167D01*
X118800894Y-138978054D01*
X118800894Y-138949942D01*
X118701087Y-138949942D01*
X118701087Y-139011039D01*
X118678812Y-139071980D01*
X118656536Y-139132922D01*
X118629806Y-139132922D01*
X118636848Y-139125141D01*
X118433836Y-139102174D01*
X118230826Y-139079206D01*
X118183169Y-139060918D01*
X118135511Y-139042629D01*
X118135511Y-138962499D01*
X118318492Y-138962499D01*
X118401664Y-138986173D01*
X118484837Y-139009847D01*
X118510959Y-139013168D01*
X118537082Y-139016488D01*
X118501246Y-138949527D01*
X118501246Y-138949519D01*
X118465410Y-138882557D01*
X118391950Y-138922528D01*
X118318492Y-138962499D01*
X118135511Y-138962499D01*
X118135511Y-138855421D01*
X118033325Y-138832977D01*
X117931140Y-138810533D01*
X117921439Y-138822016D01*
X117911737Y-138833500D01*
X117879459Y-138933307D01*
X117847180Y-139033115D01*
X117791732Y-139030346D01*
X117736283Y-139027571D01*
X117520034Y-139022026D01*
X117303785Y-139016482D01*
X117303785Y-138916673D01*
X117536669Y-138916673D01*
X117717272Y-138916673D01*
X117663433Y-138862833D01*
X117609593Y-138808993D01*
X117536669Y-138854061D01*
X117536669Y-138916673D01*
X117303785Y-138916673D01*
X117303785Y-138824148D01*
X117183063Y-138810055D01*
X117062341Y-138795962D01*
X117015693Y-138907604D01*
X116969047Y-139019245D01*
X116455423Y-138999848D01*
X116444896Y-138908359D01*
X116442024Y-138883401D01*
X116671673Y-138883401D01*
X116846165Y-138883401D01*
X116804409Y-138833087D01*
X116762652Y-138782772D01*
X116717162Y-138820525D01*
X116671673Y-138858279D01*
X116671673Y-138883401D01*
X116442024Y-138883401D01*
X116434368Y-138816869D01*
X116210120Y-138816869D01*
X116199695Y-138924994D01*
X116189270Y-139033119D01*
X115957186Y-139058745D01*
X115725103Y-139084371D01*
X115682717Y-139068106D01*
X115640330Y-139051841D01*
X115640330Y-138949940D01*
X115825687Y-138949940D01*
X116053818Y-138949940D01*
X115996785Y-138892908D01*
X115996785Y-138892910D01*
X115939752Y-138835875D01*
X115882719Y-138892908D01*
X115825687Y-138949940D01*
X115640330Y-138949940D01*
X115640330Y-138897661D01*
X115740138Y-138897661D01*
X115797171Y-138840628D01*
X115854203Y-138783596D01*
X115822182Y-138751573D01*
X115997108Y-138751573D01*
X116116780Y-138883810D01*
X116125527Y-138875062D01*
X116134273Y-138866316D01*
X116117355Y-138783594D01*
X116571865Y-138783594D01*
X116596987Y-138783594D01*
X116634740Y-138738104D01*
X116654978Y-138713718D01*
X116827099Y-138713718D01*
X116869901Y-138765290D01*
X116912703Y-138816864D01*
X116937825Y-138816864D01*
X116937825Y-138602991D01*
X116882462Y-138658354D01*
X116827099Y-138713718D01*
X116654978Y-138713718D01*
X116672493Y-138692615D01*
X116622178Y-138650858D01*
X116571865Y-138609101D01*
X116571865Y-138783594D01*
X116117355Y-138783594D01*
X116111300Y-138753988D01*
X116088326Y-138641661D01*
X116042718Y-138696616D01*
X115997108Y-138751573D01*
X115822182Y-138751573D01*
X115797171Y-138726561D01*
X115740138Y-138669529D01*
X115740138Y-138897661D01*
X115640330Y-138897661D01*
X115640330Y-138883408D01*
X115545964Y-138883408D01*
X115440715Y-138923796D01*
X115440203Y-138995093D01*
X115439691Y-139066389D01*
X115415249Y-139103486D01*
X115390807Y-139140582D01*
X114939176Y-139218482D01*
X114907156Y-139198692D01*
X114875137Y-139178904D01*
X114875137Y-139083077D01*
X115076844Y-139083077D01*
X115100752Y-139082597D01*
X115124660Y-139082118D01*
X115202328Y-139061322D01*
X115202327Y-139061314D01*
X115279995Y-139040517D01*
X115235596Y-139012374D01*
X115191198Y-138984230D01*
X115115144Y-138983270D01*
X115095994Y-139033174D01*
X115076844Y-139083077D01*
X114875137Y-139083077D01*
X114875137Y-139042634D01*
X114758695Y-139089826D01*
X114665365Y-139123589D01*
X114572035Y-139157351D01*
X114330368Y-139157351D01*
X113985193Y-138840241D01*
X113627550Y-138511677D01*
X113436202Y-138367525D01*
X113244854Y-138223373D01*
X113074919Y-138166930D01*
X112904983Y-138110487D01*
X112740969Y-138126246D01*
X112576954Y-138142007D01*
X112453505Y-138239923D01*
X112330055Y-138337839D01*
X112238565Y-138516799D01*
X112147075Y-138695759D01*
X112147075Y-139112893D01*
X112231322Y-139379581D01*
X112315569Y-139646271D01*
X112480866Y-139893409D01*
X112646163Y-140140549D01*
X113041238Y-140506318D01*
X113238932Y-140626411D01*
X113436625Y-140746502D01*
X113659658Y-140830453D01*
X113882690Y-140914402D01*
X114137715Y-140957477D01*
X114392740Y-141000553D01*
X114392740Y-141095838D01*
X114276298Y-141103103D01*
X114159857Y-141110367D01*
X113910338Y-141045299D01*
X113910338Y-141045251D01*
X113660819Y-140980183D01*
X113361397Y-140831177D01*
X113061975Y-140682169D01*
X112878175Y-140523844D01*
X112694376Y-140365519D01*
X112380131Y-139997918D01*
X112249841Y-139748401D01*
X112119552Y-139498883D01*
X112013999Y-139090050D01*
X112015085Y-138911872D01*
X112016172Y-138733694D01*
X112075350Y-138562462D01*
X112134528Y-138391230D01*
X112232292Y-138273388D01*
X112330056Y-138155545D01*
X112494616Y-138070343D01*
X112659176Y-137985140D01*
X112810672Y-137986604D01*
X112962168Y-137988060D01*
X113087463Y-138032767D01*
X113212758Y-138077474D01*
X113391914Y-138186054D01*
X113571070Y-138294635D01*
X113965270Y-138655404D01*
X114359470Y-139016173D01*
X114392739Y-139015853D01*
X114406323Y-138168121D01*
X114474736Y-137903597D01*
X114543149Y-137639073D01*
X114775172Y-137220244D01*
X115007194Y-136801416D01*
X115191239Y-136388131D01*
X115375284Y-135974847D01*
X115466221Y-135879143D01*
X115557158Y-135783440D01*
X115654062Y-135732853D01*
X115750966Y-135682265D01*
X115875798Y-135699009D01*
X116000631Y-135715752D01*
X116144855Y-135814426D01*
X116289078Y-135913100D01*
X116400785Y-135970390D01*
X116512493Y-136027679D01*
X116588668Y-136008560D01*
X116664842Y-135989441D01*
X116809650Y-135867953D01*
X116954459Y-135746464D01*
X117067962Y-135698691D01*
X117181464Y-135650917D01*
X117293239Y-135671886D01*
G36*
X117293239Y-135671886D02*
G01*
X117405013Y-135692856D01*
X117520925Y-135794627D01*
X117636837Y-135896399D01*
X117821134Y-136209546D01*
X118005431Y-136522693D01*
X118262624Y-136796467D01*
X118519816Y-137070241D01*
X118609798Y-137188967D01*
X118699781Y-137307693D01*
X118751812Y-137455121D01*
X118803845Y-137602547D01*
X118868908Y-138045188D01*
X118933970Y-138487828D01*
X118933970Y-138783602D01*
X118874069Y-138783602D01*
X118837014Y-138625574D01*
X118799957Y-138467545D01*
X118749484Y-138101585D01*
X118699012Y-137735626D01*
X118663293Y-137602550D01*
X118627574Y-137469472D01*
X118576411Y-137369665D01*
X118525247Y-137269858D01*
X118250447Y-136980445D01*
X117975646Y-136691032D01*
X117666494Y-136205246D01*
X117568873Y-136046947D01*
X117471253Y-135888648D01*
X117357760Y-135834527D01*
X117244268Y-135780406D01*
X117164971Y-135800309D01*
X117085674Y-135820211D01*
X116894473Y-135968682D01*
X116703272Y-136117153D01*
X116607746Y-136138133D01*
X116512220Y-136159115D01*
X116396575Y-136110795D01*
X116280931Y-136062476D01*
X116106608Y-135942563D01*
X115932287Y-135822663D01*
X115696567Y-135822663D01*
X115576959Y-135948879D01*
X115457352Y-136075096D01*
X115377202Y-136273253D01*
X115297051Y-136471410D01*
X115131724Y-136804101D01*
X114966397Y-137136792D01*
X114819022Y-137396894D01*
X114671647Y-137656997D01*
X114605239Y-137912566D01*
X114538831Y-138168136D01*
X114518984Y-138592317D01*
X114499136Y-139016498D01*
X114600864Y-139016498D01*
X114680531Y-138983211D01*
X114941680Y-138983211D01*
X115004291Y-138983211D01*
X115026826Y-138946750D01*
X115049360Y-138910289D01*
X115001191Y-138862120D01*
X115208367Y-138862120D01*
X115263345Y-138922870D01*
X115318322Y-138983618D01*
X115329847Y-138972093D01*
X115341371Y-138960569D01*
X115319358Y-138850504D01*
X115297344Y-138740438D01*
X115252856Y-138801279D01*
X115208367Y-138862120D01*
X115001191Y-138862120D01*
X114995519Y-138856449D01*
X114941680Y-138802608D01*
X114941680Y-138983211D01*
X114680531Y-138983211D01*
X114718076Y-138967524D01*
X114835286Y-138918551D01*
X114809137Y-138802608D01*
X114789854Y-138717106D01*
X115004291Y-138717106D01*
X115024853Y-138750375D01*
X115045414Y-138783644D01*
X115133148Y-138783644D01*
X115178808Y-138727971D01*
X115178807Y-138727921D01*
X115224467Y-138672247D01*
X115058121Y-138716146D01*
X115031206Y-138716626D01*
X115004291Y-138717106D01*
X114789854Y-138717106D01*
X114782264Y-138683453D01*
X114817347Y-138661770D01*
X114852430Y-138640088D01*
X115055084Y-138596578D01*
X115257738Y-138553069D01*
X115371165Y-138550732D01*
X115415896Y-138789167D01*
X115486528Y-138770211D01*
X115557160Y-138751255D01*
X115591309Y-138750775D01*
X115625457Y-138750295D01*
X115617754Y-138669529D01*
X115610339Y-138591777D01*
X115805001Y-138591777D01*
X115843181Y-138637782D01*
X115881362Y-138683786D01*
X115926445Y-138683786D01*
X115966368Y-138643863D01*
X116006291Y-138603940D01*
X116006291Y-138562234D01*
X115805001Y-138591777D01*
X115610339Y-138591777D01*
X115600945Y-138493269D01*
X115869699Y-138469825D01*
X116138453Y-138446382D01*
X116172181Y-138467225D01*
X116205908Y-138488070D01*
X116205908Y-138683757D01*
X116434775Y-138683757D01*
X116440954Y-138609101D01*
X116445101Y-138558999D01*
X116448540Y-138517441D01*
X116671672Y-138517441D01*
X116671672Y-138572890D01*
X116693853Y-138595069D01*
X116716031Y-138617248D01*
X116796602Y-138617248D01*
X116838018Y-138567345D01*
X116879434Y-138517441D01*
X116671672Y-138517441D01*
X116448540Y-138517441D01*
X116455426Y-138434239D01*
X117033468Y-138415074D01*
X117043869Y-138541098D01*
X117054270Y-138667123D01*
X117320423Y-138667123D01*
X117325445Y-138606159D01*
X117436861Y-138606159D01*
X117436861Y-138825010D01*
X117530874Y-138746986D01*
X117692095Y-138746986D01*
X117734897Y-138798559D01*
X117777699Y-138850132D01*
X117802822Y-138850132D01*
X117802822Y-138636260D01*
X117747459Y-138691622D01*
X117692095Y-138746986D01*
X117530874Y-138746986D01*
X117537488Y-138741496D01*
X117496589Y-138687690D01*
X117455689Y-138633883D01*
X117446274Y-138620021D01*
X117436861Y-138606159D01*
X117325445Y-138606159D01*
X117330013Y-138550710D01*
X117528522Y-138550710D01*
X117569938Y-138600614D01*
X117611354Y-138650517D01*
X117661599Y-138650517D01*
X117703015Y-138600614D01*
X117744431Y-138550710D01*
X117528522Y-138550710D01*
X117330013Y-138550710D01*
X117330874Y-138540263D01*
X117341324Y-138413404D01*
X117613662Y-138436383D01*
X117885999Y-138459361D01*
X117910950Y-138473716D01*
X117935901Y-138488070D01*
X117935901Y-138676638D01*
X117988526Y-138696832D01*
X118041150Y-138717026D01*
X118165770Y-138717026D01*
X118174680Y-138669529D01*
X118268589Y-138669529D01*
X118268589Y-138897661D01*
X118325622Y-138840628D01*
X118341010Y-138825240D01*
X118536883Y-138825240D01*
X118571777Y-138890440D01*
X118606671Y-138955641D01*
X118615831Y-138944474D01*
X118624992Y-138933307D01*
X118646649Y-138819807D01*
X118668305Y-138706305D01*
X118602594Y-138765772D01*
X118536883Y-138825240D01*
X118341010Y-138825240D01*
X118382655Y-138783596D01*
X118325622Y-138726561D01*
X118268589Y-138669529D01*
X118174680Y-138669529D01*
X118184489Y-138617247D01*
X118403754Y-138617247D01*
X118423530Y-138668784D01*
X118443307Y-138720321D01*
X118494584Y-138710371D01*
X118545863Y-138700421D01*
X118559709Y-138658834D01*
X118573555Y-138617247D01*
X118403754Y-138617247D01*
X118184489Y-138617247D01*
X118187615Y-138600583D01*
X118209459Y-138484142D01*
X118356179Y-138484142D01*
X118553586Y-138520615D01*
X118750993Y-138557088D01*
X118771608Y-138569803D01*
X118792225Y-138582518D01*
X118767901Y-138715532D01*
X118743577Y-138848546D01*
X118807103Y-138868708D01*
X118870628Y-138888869D01*
X118916976Y-138850405D01*
X118963323Y-138811941D01*
X119380850Y-138201357D01*
X119540519Y-138041230D01*
X119700190Y-137881105D01*
X119853931Y-137813098D01*
X120007672Y-137745090D01*
X120390289Y-137710395D01*
X120768284Y-137829289D01*
X120930510Y-137975144D01*
X121092735Y-138120997D01*
X121167448Y-138310887D01*
X121242160Y-138500777D01*
X121241192Y-138949911D01*
X121240224Y-139399044D01*
X121185794Y-139606466D01*
X121131364Y-139813887D01*
X120954064Y-140164233D01*
X120743829Y-140370558D01*
X120533593Y-140576882D01*
X120257767Y-140709376D01*
X119981942Y-140841870D01*
X119777525Y-140893963D01*
X119573109Y-140946057D01*
X119253348Y-140946057D01*
X119284953Y-140916072D01*
X119316559Y-140886086D01*
X119649250Y-140796626D01*
X119981942Y-140707165D01*
X120482867Y-140447275D01*
X120805689Y-140130962D01*
X120882283Y-140014520D01*
X120958876Y-139898078D01*
X121032474Y-139681828D01*
X121106070Y-139465580D01*
X121109582Y-138983179D01*
X121113094Y-138500776D01*
X121036614Y-138334846D01*
X120960134Y-138168915D01*
X120886904Y-138090406D01*
X120813674Y-138011899D01*
X120680598Y-137940857D01*
X120547520Y-137869815D01*
X120015215Y-137869815D01*
X119882139Y-137941407D01*
X119749062Y-138013000D01*
X119595750Y-138173716D01*
X119442438Y-138334432D01*
X119224067Y-138651527D01*
X119005695Y-138968622D01*
X118828439Y-139134220D01*
X118651183Y-139299818D01*
X118484838Y-139419418D01*
X118551377Y-139398587D01*
X118617916Y-139377757D01*
X118884068Y-139313290D01*
X119150220Y-139248822D01*
X119435054Y-139227905D01*
X119719887Y-139206988D01*
X119843751Y-139265766D01*
X119967614Y-139324543D01*
X120000904Y-139386745D01*
X120034193Y-139448948D01*
X119962972Y-139448948D01*
X119879545Y-139394286D01*
X119796120Y-139339623D01*
X119473171Y-139358247D01*
X119150220Y-139376872D01*
X118617916Y-139516838D01*
X118085610Y-139656804D01*
X117686380Y-139758142D01*
X117287152Y-139859480D01*
X116422155Y-139860295D01*
X115557158Y-139861111D01*
X115108026Y-139786897D01*
X114843249Y-139743146D01*
X115756772Y-139743146D01*
X115820538Y-139745770D01*
X115884303Y-139748395D01*
X115864203Y-139728293D01*
X115864204Y-139728299D01*
X115844103Y-139708199D01*
X115756772Y-139743146D01*
X114843249Y-139743146D01*
X114658893Y-139712683D01*
X114337299Y-139674283D01*
X114015704Y-139635884D01*
X113780537Y-139672284D01*
X113545369Y-139708685D01*
X113396074Y-139780957D01*
X113246779Y-139853230D01*
X113212599Y-139832106D01*
X113178419Y-139810984D01*
X113178419Y-139749724D01*
X113305173Y-139685058D01*
X113431928Y-139620393D01*
X113634349Y-139567940D01*
X113836770Y-139515488D01*
X114031582Y-139515808D01*
X114226395Y-139516128D01*
X114731890Y-139596817D01*
X115237386Y-139677506D01*
X115480445Y-139697379D01*
X115723503Y-139717252D01*
X115092351Y-139545138D01*
X114899615Y-139467289D01*
X114706881Y-139389439D01*
X114524859Y-139279122D01*
X114342837Y-139168806D01*
X114330368Y-139157351D01*
X114572035Y-139157351D01*
X114632096Y-139197018D01*
X114692157Y-139236684D01*
X114894194Y-139325419D01*
X115096232Y-139414153D01*
X115417350Y-139499621D01*
X115738469Y-139585090D01*
X116063675Y-139629555D01*
X116388880Y-139674021D01*
X116838013Y-139677508D01*
X117287145Y-139680996D01*
X117599705Y-139616504D01*
X117599708Y-139616495D01*
X117912267Y-139552003D01*
X118219307Y-139399623D01*
X118526346Y-139247242D01*
X118581596Y-139186192D01*
X118629806Y-139132922D01*
X118656536Y-139132922D01*
X118728715Y-139069544D01*
X118800895Y-139006167D01*
X118800894Y-138978054D01*
X118800894Y-138949942D01*
X118701087Y-138949942D01*
X118701087Y-139011039D01*
X118678812Y-139071980D01*
X118656536Y-139132922D01*
X118629806Y-139132922D01*
X118636848Y-139125141D01*
X118433836Y-139102174D01*
X118230826Y-139079206D01*
X118183169Y-139060918D01*
X118135511Y-139042629D01*
X118135511Y-138962499D01*
X118318492Y-138962499D01*
X118401664Y-138986173D01*
X118484837Y-139009847D01*
X118510959Y-139013168D01*
X118537082Y-139016488D01*
X118501246Y-138949527D01*
X118501246Y-138949519D01*
X118465410Y-138882557D01*
X118391950Y-138922528D01*
X118318492Y-138962499D01*
X118135511Y-138962499D01*
X118135511Y-138855421D01*
X118033325Y-138832977D01*
X117931140Y-138810533D01*
X117921439Y-138822016D01*
X117911737Y-138833500D01*
X117879459Y-138933307D01*
X117847180Y-139033115D01*
X117791732Y-139030346D01*
X117736283Y-139027571D01*
X117520034Y-139022026D01*
X117303785Y-139016482D01*
X117303785Y-138916673D01*
X117536669Y-138916673D01*
X117717272Y-138916673D01*
X117663433Y-138862833D01*
X117609593Y-138808993D01*
X117536669Y-138854061D01*
X117536669Y-138916673D01*
X117303785Y-138916673D01*
X117303785Y-138824148D01*
X117183063Y-138810055D01*
X117062341Y-138795962D01*
X117015693Y-138907604D01*
X116969047Y-139019245D01*
X116455423Y-138999848D01*
X116444896Y-138908359D01*
X116442024Y-138883401D01*
X116671673Y-138883401D01*
X116846165Y-138883401D01*
X116804409Y-138833087D01*
X116762652Y-138782772D01*
X116717162Y-138820525D01*
X116671673Y-138858279D01*
X116671673Y-138883401D01*
X116442024Y-138883401D01*
X116434368Y-138816869D01*
X116210120Y-138816869D01*
X116199695Y-138924994D01*
X116189270Y-139033119D01*
X115957186Y-139058745D01*
X115725103Y-139084371D01*
X115682717Y-139068106D01*
X115640330Y-139051841D01*
X115640330Y-138949940D01*
X115825687Y-138949940D01*
X116053818Y-138949940D01*
X115996785Y-138892908D01*
X115996785Y-138892910D01*
X115939752Y-138835875D01*
X115882719Y-138892908D01*
X115825687Y-138949940D01*
X115640330Y-138949940D01*
X115640330Y-138897661D01*
X115740138Y-138897661D01*
X115797171Y-138840628D01*
X115854203Y-138783596D01*
X115822182Y-138751573D01*
X115997108Y-138751573D01*
X116116780Y-138883810D01*
X116125527Y-138875062D01*
X116134273Y-138866316D01*
X116117355Y-138783594D01*
X116571865Y-138783594D01*
X116596987Y-138783594D01*
X116634740Y-138738104D01*
X116654978Y-138713718D01*
X116827099Y-138713718D01*
X116869901Y-138765290D01*
X116912703Y-138816864D01*
X116937825Y-138816864D01*
X116937825Y-138602991D01*
X116882462Y-138658354D01*
X116827099Y-138713718D01*
X116654978Y-138713718D01*
X116672493Y-138692615D01*
X116622178Y-138650858D01*
X116571865Y-138609101D01*
X116571865Y-138783594D01*
X116117355Y-138783594D01*
X116111300Y-138753988D01*
X116088326Y-138641661D01*
X116042718Y-138696616D01*
X115997108Y-138751573D01*
X115822182Y-138751573D01*
X115797171Y-138726561D01*
X115740138Y-138669529D01*
X115740138Y-138897661D01*
X115640330Y-138897661D01*
X115640330Y-138883408D01*
X115545964Y-138883408D01*
X115440715Y-138923796D01*
X115440203Y-138995093D01*
X115439691Y-139066389D01*
X115415249Y-139103486D01*
X115390807Y-139140582D01*
X114939176Y-139218482D01*
X114907156Y-139198692D01*
X114875137Y-139178904D01*
X114875137Y-139083077D01*
X115076844Y-139083077D01*
X115100752Y-139082597D01*
X115124660Y-139082118D01*
X115202328Y-139061322D01*
X115202327Y-139061314D01*
X115279995Y-139040517D01*
X115235596Y-139012374D01*
X115191198Y-138984230D01*
X115115144Y-138983270D01*
X115095994Y-139033174D01*
X115076844Y-139083077D01*
X114875137Y-139083077D01*
X114875137Y-139042634D01*
X114758695Y-139089826D01*
X114665365Y-139123589D01*
X114572035Y-139157351D01*
X114330368Y-139157351D01*
X113985193Y-138840241D01*
X113627550Y-138511677D01*
X113436202Y-138367525D01*
X113244854Y-138223373D01*
X113074919Y-138166930D01*
X112904983Y-138110487D01*
X112740969Y-138126246D01*
X112576954Y-138142007D01*
X112453505Y-138239923D01*
X112330055Y-138337839D01*
X112238565Y-138516799D01*
X112147075Y-138695759D01*
X112147075Y-139112893D01*
X112231322Y-139379581D01*
X112315569Y-139646271D01*
X112480866Y-139893409D01*
X112646163Y-140140549D01*
X113041238Y-140506318D01*
X113238932Y-140626411D01*
X113436625Y-140746502D01*
X113659658Y-140830453D01*
X113882690Y-140914402D01*
X114137715Y-140957477D01*
X114392740Y-141000553D01*
X114392740Y-141095838D01*
X114276298Y-141103103D01*
X114159857Y-141110367D01*
X113910338Y-141045299D01*
X113910338Y-141045251D01*
X113660819Y-140980183D01*
X113361397Y-140831177D01*
X113061975Y-140682169D01*
X112878175Y-140523844D01*
X112694376Y-140365519D01*
X112380131Y-139997918D01*
X112249841Y-139748401D01*
X112119552Y-139498883D01*
X112013999Y-139090050D01*
X112015085Y-138911872D01*
X112016172Y-138733694D01*
X112075350Y-138562462D01*
X112134528Y-138391230D01*
X112232292Y-138273388D01*
X112330056Y-138155545D01*
X112494616Y-138070343D01*
X112659176Y-137985140D01*
X112810672Y-137986604D01*
X112962168Y-137988060D01*
X113087463Y-138032767D01*
X113212758Y-138077474D01*
X113391914Y-138186054D01*
X113571070Y-138294635D01*
X113965270Y-138655404D01*
X114359470Y-139016173D01*
X114392739Y-139015853D01*
X114406323Y-138168121D01*
X114474736Y-137903597D01*
X114543149Y-137639073D01*
X114775172Y-137220244D01*
X115007194Y-136801416D01*
X115191239Y-136388131D01*
X115375284Y-135974847D01*
X115466221Y-135879143D01*
X115557158Y-135783440D01*
X115654062Y-135732853D01*
X115750966Y-135682265D01*
X115875798Y-135699009D01*
X116000631Y-135715752D01*
X116144855Y-135814426D01*
X116289078Y-135913100D01*
X116400785Y-135970390D01*
X116512493Y-136027679D01*
X116588668Y-136008560D01*
X116664842Y-135989441D01*
X116809650Y-135867953D01*
X116954459Y-135746464D01*
X117067962Y-135698691D01*
X117181464Y-135650917D01*
X117293239Y-135671886D01*
G37*
X114908011Y-140296859D02*
X114948422Y-140345550D01*
X114925045Y-141475113D01*
X114851022Y-141549090D01*
X114829812Y-141443044D01*
X114808603Y-141336999D01*
X114808603Y-140284632D01*
X114838102Y-140266400D01*
X114867602Y-140248169D01*
X114908011Y-140296859D01*
G36*
X114908011Y-140296859D02*
G01*
X114948422Y-140345550D01*
X114925045Y-141475113D01*
X114851022Y-141549090D01*
X114829812Y-141443044D01*
X114808603Y-141336999D01*
X114808603Y-140284632D01*
X114838102Y-140266400D01*
X114867602Y-140248169D01*
X114908011Y-140296859D01*
G37*
X118861231Y-140813008D02*
X118871664Y-141162334D01*
X118850266Y-141370266D01*
X118828868Y-141578198D01*
X118771702Y-141578198D01*
X118751226Y-141436804D01*
X118730751Y-141295410D01*
X118740871Y-140879546D01*
X118750991Y-140463681D01*
X118850798Y-140463681D01*
X118861231Y-140813008D01*
G36*
X118861231Y-140813008D02*
G01*
X118871664Y-141162334D01*
X118850266Y-141370266D01*
X118828868Y-141578198D01*
X118771702Y-141578198D01*
X118751226Y-141436804D01*
X118730751Y-141295410D01*
X118740871Y-140879546D01*
X118750991Y-140463681D01*
X118850798Y-140463681D01*
X118861231Y-140813008D01*
G37*
X118038503Y-140679930D02*
X118140629Y-140679930D01*
X118237877Y-140777179D01*
X118335125Y-140874427D01*
X118334965Y-140968476D01*
X118334805Y-141062525D01*
X118269424Y-141169757D01*
X118204041Y-141276988D01*
X118122980Y-141297333D01*
X118041919Y-141317677D01*
X118022596Y-141389714D01*
X118003272Y-141461752D01*
X118002792Y-141536607D01*
X118002393Y-141611462D01*
X117943409Y-141611462D01*
X117922039Y-141468672D01*
X117900626Y-141325876D01*
X117808109Y-141290956D01*
X117715590Y-141256034D01*
X117700311Y-141223835D01*
X118035711Y-141223835D01*
X118202056Y-141067561D01*
X118202050Y-140992044D01*
X118202050Y-140916527D01*
X118119929Y-140823181D01*
X118037807Y-140729835D01*
X118036759Y-140976835D01*
X118035711Y-141223835D01*
X117700311Y-141223835D01*
X117608847Y-141031087D01*
X117736284Y-141031087D01*
X117788073Y-141105028D01*
X117839863Y-141178968D01*
X117902629Y-141178968D01*
X117902629Y-140779740D01*
X117839863Y-140779740D01*
X117788073Y-140853680D01*
X117736284Y-140927621D01*
X117736284Y-141031087D01*
X117608847Y-141031087D01*
X117598604Y-141009503D01*
X117619986Y-140912154D01*
X117641368Y-140814806D01*
X117841194Y-140646661D01*
X117899713Y-140646661D01*
X117909487Y-140405460D01*
X117919262Y-140164259D01*
X118019069Y-140164259D01*
X118038503Y-140679930D01*
G36*
X118038503Y-140679930D02*
G01*
X118140629Y-140679930D01*
X118237877Y-140777179D01*
X118335125Y-140874427D01*
X118334965Y-140968476D01*
X118334805Y-141062525D01*
X118269424Y-141169757D01*
X118204041Y-141276988D01*
X118122980Y-141297333D01*
X118041919Y-141317677D01*
X118022596Y-141389714D01*
X118003272Y-141461752D01*
X118002792Y-141536607D01*
X118002393Y-141611462D01*
X117943409Y-141611462D01*
X117922039Y-141468672D01*
X117900626Y-141325876D01*
X117808109Y-141290956D01*
X117715590Y-141256034D01*
X117700311Y-141223835D01*
X118035711Y-141223835D01*
X118202056Y-141067561D01*
X118202050Y-140992044D01*
X118202050Y-140916527D01*
X118119929Y-140823181D01*
X118037807Y-140729835D01*
X118036759Y-140976835D01*
X118035711Y-141223835D01*
X117700311Y-141223835D01*
X117608847Y-141031087D01*
X117736284Y-141031087D01*
X117788073Y-141105028D01*
X117839863Y-141178968D01*
X117902629Y-141178968D01*
X117902629Y-140779740D01*
X117839863Y-140779740D01*
X117788073Y-140853680D01*
X117736284Y-140927621D01*
X117736284Y-141031087D01*
X117608847Y-141031087D01*
X117598604Y-141009503D01*
X117619986Y-140912154D01*
X117641368Y-140814806D01*
X117841194Y-140646661D01*
X117899713Y-140646661D01*
X117909487Y-140405460D01*
X117919262Y-140164259D01*
X118019069Y-140164259D01*
X118038503Y-140679930D01*
G37*
X116469201Y-140465113D02*
X116549381Y-140616255D01*
X116677076Y-140761323D01*
X116804771Y-140906391D01*
X116804771Y-140979930D01*
X116709143Y-141111939D01*
X116613517Y-141243949D01*
X116538934Y-141427709D01*
X116464352Y-141611467D01*
X116372272Y-141611467D01*
X116372251Y-141541692D01*
X116372251Y-141471916D01*
X116509132Y-141208812D01*
X116646014Y-140945708D01*
X116557504Y-140829665D01*
X116468994Y-140713623D01*
X116404718Y-140572018D01*
X116340443Y-140430412D01*
X116339723Y-140372192D01*
X116339003Y-140313972D01*
X116389021Y-140313972D01*
X116469201Y-140465113D01*
G36*
X116469201Y-140465113D02*
G01*
X116549381Y-140616255D01*
X116677076Y-140761323D01*
X116804771Y-140906391D01*
X116804771Y-140979930D01*
X116709143Y-141111939D01*
X116613517Y-141243949D01*
X116538934Y-141427709D01*
X116464352Y-141611467D01*
X116372272Y-141611467D01*
X116372251Y-141541692D01*
X116372251Y-141471916D01*
X116509132Y-141208812D01*
X116646014Y-140945708D01*
X116557504Y-140829665D01*
X116468994Y-140713623D01*
X116404718Y-140572018D01*
X116340443Y-140430412D01*
X116339723Y-140372192D01*
X116339003Y-140313972D01*
X116389021Y-140313972D01*
X116469201Y-140465113D01*
G37*
X117468073Y-140447048D02*
X117469504Y-140530221D01*
X117373153Y-140698202D01*
X117276802Y-140866181D01*
X117226386Y-140908022D01*
X117175971Y-140949863D01*
X117276324Y-141164313D01*
X117376677Y-141378762D01*
X117394514Y-141511748D01*
X117412351Y-141644735D01*
X117340979Y-141644735D01*
X117324709Y-141618408D01*
X117324711Y-141618409D01*
X117308439Y-141592082D01*
X117223746Y-141367071D01*
X117139052Y-141142060D01*
X117084837Y-141050282D01*
X117030623Y-140958504D01*
X117192451Y-140742014D01*
X117354281Y-140525525D01*
X117410461Y-140444701D01*
X117466641Y-140363876D01*
X117468073Y-140447048D01*
G36*
X117468073Y-140447048D02*
G01*
X117469504Y-140530221D01*
X117373153Y-140698202D01*
X117276802Y-140866181D01*
X117226386Y-140908022D01*
X117175971Y-140949863D01*
X117276324Y-141164313D01*
X117376677Y-141378762D01*
X117394514Y-141511748D01*
X117412351Y-141644735D01*
X117340979Y-141644735D01*
X117324709Y-141618408D01*
X117324711Y-141618409D01*
X117308439Y-141592082D01*
X117223746Y-141367071D01*
X117139052Y-141142060D01*
X117084837Y-141050282D01*
X117030623Y-140958504D01*
X117192451Y-140742014D01*
X117354281Y-140525525D01*
X117410461Y-140444701D01*
X117466641Y-140363876D01*
X117468073Y-140447048D01*
G37*
X115706866Y-140143251D02*
X115707379Y-140336736D01*
X115707891Y-140530220D01*
X115732333Y-140567164D01*
X115756776Y-140604109D01*
X115971053Y-140713889D01*
X116005308Y-140777895D01*
X116039564Y-140841903D01*
X116039564Y-141073976D01*
X115906487Y-141187883D01*
X115773411Y-141301792D01*
X115773411Y-141607539D01*
X115741823Y-141627062D01*
X115710234Y-141646584D01*
X115689704Y-141520901D01*
X115689700Y-141520901D01*
X115669169Y-141395217D01*
X115662727Y-141345314D01*
X115656285Y-141295410D01*
X115586353Y-141285378D01*
X115516420Y-141275348D01*
X115425996Y-141180967D01*
X115335573Y-141086585D01*
X115323666Y-140997818D01*
X115440715Y-140997818D01*
X115492506Y-141071759D01*
X115544296Y-141145699D01*
X115648925Y-141145699D01*
X115625423Y-140937970D01*
X115601921Y-140730240D01*
X115590706Y-140719026D01*
X115584881Y-140713202D01*
X115740138Y-140713202D01*
X115741050Y-140962721D01*
X115761110Y-141037575D01*
X115781171Y-141112431D01*
X115831801Y-141112431D01*
X115873303Y-141062425D01*
X115873300Y-141062424D01*
X115914801Y-141012418D01*
X115914801Y-140844073D01*
X115855582Y-140778637D01*
X115796364Y-140713202D01*
X115740138Y-140713202D01*
X115584881Y-140713202D01*
X115579490Y-140707811D01*
X115510103Y-140744946D01*
X115440715Y-140782081D01*
X115440715Y-140997818D01*
X115323666Y-140997818D01*
X115317319Y-140950499D01*
X115299066Y-140814413D01*
X115355720Y-140727948D01*
X115412373Y-140641484D01*
X115507237Y-140608414D01*
X115602101Y-140575344D01*
X115589210Y-140469609D01*
X115576318Y-140363874D01*
X115561760Y-140223783D01*
X115547202Y-140083690D01*
X115591445Y-140046971D01*
X115635688Y-140010252D01*
X115706866Y-140143251D01*
G36*
X115706866Y-140143251D02*
G01*
X115707379Y-140336736D01*
X115707891Y-140530220D01*
X115732333Y-140567164D01*
X115756776Y-140604109D01*
X115971053Y-140713889D01*
X116005308Y-140777895D01*
X116039564Y-140841903D01*
X116039564Y-141073976D01*
X115906487Y-141187883D01*
X115773411Y-141301792D01*
X115773411Y-141607539D01*
X115741823Y-141627062D01*
X115710234Y-141646584D01*
X115689704Y-141520901D01*
X115689700Y-141520901D01*
X115669169Y-141395217D01*
X115662727Y-141345314D01*
X115656285Y-141295410D01*
X115586353Y-141285378D01*
X115516420Y-141275348D01*
X115425996Y-141180967D01*
X115335573Y-141086585D01*
X115323666Y-140997818D01*
X115440715Y-140997818D01*
X115492506Y-141071759D01*
X115544296Y-141145699D01*
X115648925Y-141145699D01*
X115625423Y-140937970D01*
X115601921Y-140730240D01*
X115590706Y-140719026D01*
X115584881Y-140713202D01*
X115740138Y-140713202D01*
X115741050Y-140962721D01*
X115761110Y-141037575D01*
X115781171Y-141112431D01*
X115831801Y-141112431D01*
X115873303Y-141062425D01*
X115873300Y-141062424D01*
X115914801Y-141012418D01*
X115914801Y-140844073D01*
X115855582Y-140778637D01*
X115796364Y-140713202D01*
X115740138Y-140713202D01*
X115584881Y-140713202D01*
X115579490Y-140707811D01*
X115510103Y-140744946D01*
X115440715Y-140782081D01*
X115440715Y-140997818D01*
X115323666Y-140997818D01*
X115317319Y-140950499D01*
X115299066Y-140814413D01*
X115355720Y-140727948D01*
X115412373Y-140641484D01*
X115507237Y-140608414D01*
X115602101Y-140575344D01*
X115589210Y-140469609D01*
X115576318Y-140363874D01*
X115561760Y-140223783D01*
X115547202Y-140083690D01*
X115591445Y-140046971D01*
X115635688Y-140010252D01*
X115706866Y-140143251D01*
G37*
X118462293Y-141744648D02*
X118950605Y-141744808D01*
X119266662Y-141793546D01*
X119582718Y-141842283D01*
X119888782Y-141925335D01*
X120194847Y-142008387D01*
X120412359Y-142107012D01*
X120629871Y-142205636D01*
X120809133Y-142375173D01*
X120988394Y-142544712D01*
X121079758Y-142748299D01*
X121171124Y-142951887D01*
X121155623Y-143188196D01*
X121140123Y-143424504D01*
X121054725Y-143590849D01*
X120969328Y-143757195D01*
X120858233Y-143863519D01*
X120747138Y-143969842D01*
X120551517Y-144059234D01*
X120355895Y-144148627D01*
X120102383Y-144148661D01*
X119848871Y-144148695D01*
X119664536Y-144077911D01*
X119480198Y-144007127D01*
X119358420Y-143882154D01*
X119236641Y-143757181D01*
X119183034Y-143628514D01*
X119129427Y-143499847D01*
X119129427Y-143067704D01*
X119217261Y-142888177D01*
X119305096Y-142708651D01*
X119418887Y-142621858D01*
X119532680Y-142535064D01*
X119657507Y-142490519D01*
X119782333Y-142445973D01*
X119882142Y-142444701D01*
X119981949Y-142443429D01*
X120105674Y-142477792D01*
X120229400Y-142512153D01*
X120331700Y-142598232D01*
X120434000Y-142684311D01*
X120499079Y-142811877D01*
X120564158Y-142939443D01*
X120564158Y-143211551D01*
X120514919Y-143306769D01*
X120465681Y-143401986D01*
X120377357Y-143471462D01*
X120289031Y-143540937D01*
X120062098Y-143540937D01*
X119980438Y-143459277D01*
X119898776Y-143377616D01*
X119898776Y-143212171D01*
X119932045Y-143191611D01*
X119965314Y-143171050D01*
X119965314Y-143297740D01*
X120026155Y-143352800D01*
X120086996Y-143407860D01*
X120257365Y-143407860D01*
X120406389Y-143287189D01*
X120420577Y-143122958D01*
X120434765Y-142958727D01*
X120374702Y-142842785D01*
X120314638Y-142726845D01*
X120181562Y-142652036D01*
X120048485Y-142577226D01*
X119905766Y-142576666D01*
X119763046Y-142576106D01*
X119639612Y-142639597D01*
X119516179Y-142703088D01*
X119426806Y-142797626D01*
X119337432Y-142892163D01*
X119298987Y-142991970D01*
X119260543Y-143091777D01*
X119261103Y-143296114D01*
X119261663Y-143500451D01*
X119327171Y-143628805D01*
X119392679Y-143757158D01*
X119455656Y-143814109D01*
X119518632Y-143871058D01*
X119683763Y-143945543D01*
X119848892Y-144020027D01*
X120098603Y-144021235D01*
X120348314Y-144022435D01*
X120538740Y-143929269D01*
X120729166Y-143836101D01*
X120829390Y-143714510D01*
X120929615Y-143592920D01*
X120982961Y-143432308D01*
X121036308Y-143271697D01*
X121035004Y-143102728D01*
X121033701Y-142933760D01*
X120861628Y-142582055D01*
X120724442Y-142458116D01*
X120587256Y-142334177D01*
X120345087Y-142222287D01*
X120102917Y-142110398D01*
X119765035Y-142028584D01*
X119427153Y-141946770D01*
X119162895Y-141908130D01*
X118898637Y-141869491D01*
X117653144Y-141901239D01*
X117270549Y-141989479D01*
X116887955Y-142077720D01*
X116521995Y-141990727D01*
X116156035Y-141903735D01*
X115516299Y-141886666D01*
X114876564Y-141869597D01*
X114348756Y-141946772D01*
X114010873Y-142028586D01*
X113672991Y-142110400D01*
X113433368Y-142221113D01*
X113193745Y-142331826D01*
X113071214Y-142439410D01*
X112948683Y-142546993D01*
X112847318Y-142749844D01*
X112745950Y-142952698D01*
X112746278Y-143138681D01*
X112746606Y-143324664D01*
X112824411Y-143491009D01*
X112902215Y-143657355D01*
X113121809Y-143870926D01*
X113427972Y-144018590D01*
X113677491Y-144020118D01*
X113927009Y-144021647D01*
X114276819Y-143865196D01*
X114374984Y-143753392D01*
X114473149Y-143641588D01*
X114511406Y-143499758D01*
X114549662Y-143357928D01*
X114530858Y-143198635D01*
X114512054Y-143039342D01*
X114438229Y-142907987D01*
X114364404Y-142776633D01*
X114235466Y-142687280D01*
X114106529Y-142597927D01*
X113926712Y-142583015D01*
X113746895Y-142568103D01*
X113600081Y-142654142D01*
X113453266Y-142740180D01*
X113399033Y-142854468D01*
X113344798Y-142968756D01*
X113344798Y-143178253D01*
X113395307Y-143275926D01*
X113445816Y-143373600D01*
X113528383Y-143394322D01*
X113610951Y-143415045D01*
X113695133Y-143393916D01*
X113779315Y-143372788D01*
X113799099Y-143273867D01*
X113818883Y-143174947D01*
X113869985Y-143174947D01*
X113889246Y-143225140D01*
X113908507Y-143275333D01*
X113846805Y-143437621D01*
X113761503Y-143493513D01*
X113676201Y-143549405D01*
X113556277Y-143529944D01*
X113436354Y-143510483D01*
X113369350Y-143450840D01*
X113302347Y-143391197D01*
X113257035Y-143284142D01*
X113211723Y-143177086D01*
X113212451Y-143067893D01*
X113213179Y-142958700D01*
X113275366Y-142821761D01*
X113337552Y-142684823D01*
X113561044Y-142516053D01*
X113699126Y-142475267D01*
X113837208Y-142434481D01*
X114126617Y-142478297D01*
X114389675Y-142626390D01*
X114496844Y-142766897D01*
X114604013Y-142907405D01*
X114642455Y-143092582D01*
X114680898Y-143277759D01*
X114657606Y-143417651D01*
X114634315Y-143557544D01*
X114574678Y-143673985D01*
X114515043Y-143790427D01*
X114404003Y-143896490D01*
X114292963Y-144002554D01*
X113993541Y-144130124D01*
X113810562Y-144148309D01*
X113627582Y-144166494D01*
X113475224Y-144140058D01*
X113475193Y-144140222D01*
X113322835Y-144113786D01*
X113185013Y-144043474D01*
X113047191Y-143973163D01*
X112931158Y-143871284D01*
X112815125Y-143769407D01*
X112726802Y-143588880D01*
X112638479Y-143408354D01*
X112622356Y-143200244D01*
X112606234Y-142992132D01*
X112681487Y-142792763D01*
X112756740Y-142593393D01*
X112942627Y-142407929D01*
X113128514Y-142222466D01*
X113348081Y-142118984D01*
X113567649Y-142015502D01*
X113880387Y-141930869D01*
X114193125Y-141846236D01*
X114509182Y-141795522D01*
X114825238Y-141744808D01*
X115313550Y-141744648D01*
X115801862Y-141744488D01*
X116062104Y-141779721D01*
X116322347Y-141814955D01*
X116615437Y-141882767D01*
X116908527Y-141950580D01*
X117181011Y-141882433D01*
X117453496Y-141814286D01*
X117713738Y-141779387D01*
X117973981Y-141744488D01*
X118462293Y-141744648D01*
G36*
X118462293Y-141744648D02*
G01*
X118950605Y-141744808D01*
X119266662Y-141793546D01*
X119582718Y-141842283D01*
X119888782Y-141925335D01*
X120194847Y-142008387D01*
X120412359Y-142107012D01*
X120629871Y-142205636D01*
X120809133Y-142375173D01*
X120988394Y-142544712D01*
X121079758Y-142748299D01*
X121171124Y-142951887D01*
X121155623Y-143188196D01*
X121140123Y-143424504D01*
X121054725Y-143590849D01*
X120969328Y-143757195D01*
X120858233Y-143863519D01*
X120747138Y-143969842D01*
X120551517Y-144059234D01*
X120355895Y-144148627D01*
X120102383Y-144148661D01*
X119848871Y-144148695D01*
X119664536Y-144077911D01*
X119480198Y-144007127D01*
X119358420Y-143882154D01*
X119236641Y-143757181D01*
X119183034Y-143628514D01*
X119129427Y-143499847D01*
X119129427Y-143067704D01*
X119217261Y-142888177D01*
X119305096Y-142708651D01*
X119418887Y-142621858D01*
X119532680Y-142535064D01*
X119657507Y-142490519D01*
X119782333Y-142445973D01*
X119882142Y-142444701D01*
X119981949Y-142443429D01*
X120105674Y-142477792D01*
X120229400Y-142512153D01*
X120331700Y-142598232D01*
X120434000Y-142684311D01*
X120499079Y-142811877D01*
X120564158Y-142939443D01*
X120564158Y-143211551D01*
X120514919Y-143306769D01*
X120465681Y-143401986D01*
X120377357Y-143471462D01*
X120289031Y-143540937D01*
X120062098Y-143540937D01*
X119980438Y-143459277D01*
X119898776Y-143377616D01*
X119898776Y-143212171D01*
X119932045Y-143191611D01*
X119965314Y-143171050D01*
X119965314Y-143297740D01*
X120026155Y-143352800D01*
X120086996Y-143407860D01*
X120257365Y-143407860D01*
X120406389Y-143287189D01*
X120420577Y-143122958D01*
X120434765Y-142958727D01*
X120374702Y-142842785D01*
X120314638Y-142726845D01*
X120181562Y-142652036D01*
X120048485Y-142577226D01*
X119905766Y-142576666D01*
X119763046Y-142576106D01*
X119639612Y-142639597D01*
X119516179Y-142703088D01*
X119426806Y-142797626D01*
X119337432Y-142892163D01*
X119298987Y-142991970D01*
X119260543Y-143091777D01*
X119261103Y-143296114D01*
X119261663Y-143500451D01*
X119327171Y-143628805D01*
X119392679Y-143757158D01*
X119455656Y-143814109D01*
X119518632Y-143871058D01*
X119683763Y-143945543D01*
X119848892Y-144020027D01*
X120098603Y-144021235D01*
X120348314Y-144022435D01*
X120538740Y-143929269D01*
X120729166Y-143836101D01*
X120829390Y-143714510D01*
X120929615Y-143592920D01*
X120982961Y-143432308D01*
X121036308Y-143271697D01*
X121035004Y-143102728D01*
X121033701Y-142933760D01*
X120861628Y-142582055D01*
X120724442Y-142458116D01*
X120587256Y-142334177D01*
X120345087Y-142222287D01*
X120102917Y-142110398D01*
X119765035Y-142028584D01*
X119427153Y-141946770D01*
X119162895Y-141908130D01*
X118898637Y-141869491D01*
X117653144Y-141901239D01*
X117270549Y-141989479D01*
X116887955Y-142077720D01*
X116521995Y-141990727D01*
X116156035Y-141903735D01*
X115516299Y-141886666D01*
X114876564Y-141869597D01*
X114348756Y-141946772D01*
X114010873Y-142028586D01*
X113672991Y-142110400D01*
X113433368Y-142221113D01*
X113193745Y-142331826D01*
X113071214Y-142439410D01*
X112948683Y-142546993D01*
X112847318Y-142749844D01*
X112745950Y-142952698D01*
X112746278Y-143138681D01*
X112746606Y-143324664D01*
X112824411Y-143491009D01*
X112902215Y-143657355D01*
X113121809Y-143870926D01*
X113427972Y-144018590D01*
X113677491Y-144020118D01*
X113927009Y-144021647D01*
X114276819Y-143865196D01*
X114374984Y-143753392D01*
X114473149Y-143641588D01*
X114511406Y-143499758D01*
X114549662Y-143357928D01*
X114530858Y-143198635D01*
X114512054Y-143039342D01*
X114438229Y-142907987D01*
X114364404Y-142776633D01*
X114235466Y-142687280D01*
X114106529Y-142597927D01*
X113926712Y-142583015D01*
X113746895Y-142568103D01*
X113600081Y-142654142D01*
X113453266Y-142740180D01*
X113399033Y-142854468D01*
X113344798Y-142968756D01*
X113344798Y-143178253D01*
X113395307Y-143275926D01*
X113445816Y-143373600D01*
X113528383Y-143394322D01*
X113610951Y-143415045D01*
X113695133Y-143393916D01*
X113779315Y-143372788D01*
X113799099Y-143273867D01*
X113818883Y-143174947D01*
X113869985Y-143174947D01*
X113889246Y-143225140D01*
X113908507Y-143275333D01*
X113846805Y-143437621D01*
X113761503Y-143493513D01*
X113676201Y-143549405D01*
X113556277Y-143529944D01*
X113436354Y-143510483D01*
X113369350Y-143450840D01*
X113302347Y-143391197D01*
X113257035Y-143284142D01*
X113211723Y-143177086D01*
X113212451Y-143067893D01*
X113213179Y-142958700D01*
X113275366Y-142821761D01*
X113337552Y-142684823D01*
X113561044Y-142516053D01*
X113699126Y-142475267D01*
X113837208Y-142434481D01*
X114126617Y-142478297D01*
X114389675Y-142626390D01*
X114496844Y-142766897D01*
X114604013Y-142907405D01*
X114642455Y-143092582D01*
X114680898Y-143277759D01*
X114657606Y-143417651D01*
X114634315Y-143557544D01*
X114574678Y-143673985D01*
X114515043Y-143790427D01*
X114404003Y-143896490D01*
X114292963Y-144002554D01*
X113993541Y-144130124D01*
X113810562Y-144148309D01*
X113627582Y-144166494D01*
X113475224Y-144140058D01*
X113475193Y-144140222D01*
X113322835Y-144113786D01*
X113185013Y-144043474D01*
X113047191Y-143973163D01*
X112931158Y-143871284D01*
X112815125Y-143769407D01*
X112726802Y-143588880D01*
X112638479Y-143408354D01*
X112622356Y-143200244D01*
X112606234Y-142992132D01*
X112681487Y-142792763D01*
X112756740Y-142593393D01*
X112942627Y-142407929D01*
X113128514Y-142222466D01*
X113348081Y-142118984D01*
X113567649Y-142015502D01*
X113880387Y-141930869D01*
X114193125Y-141846236D01*
X114509182Y-141795522D01*
X114825238Y-141744808D01*
X115313550Y-141744648D01*
X115801862Y-141744488D01*
X116062104Y-141779721D01*
X116322347Y-141814955D01*
X116615437Y-141882767D01*
X116908527Y-141950580D01*
X117181011Y-141882433D01*
X117453496Y-141814286D01*
X117713738Y-141779387D01*
X117973981Y-141744488D01*
X118462293Y-141744648D01*
G37*
D10*
X148232257Y-79939774D02*
X148160828Y-80082632D01*
X148160828Y-80082632D02*
X148160828Y-80296917D01*
X148160828Y-80296917D02*
X148232257Y-80511203D01*
X148232257Y-80511203D02*
X148375114Y-80654060D01*
X148375114Y-80654060D02*
X148517971Y-80725489D01*
X148517971Y-80725489D02*
X148803685Y-80796917D01*
X148803685Y-80796917D02*
X149017971Y-80796917D01*
X149017971Y-80796917D02*
X149303685Y-80725489D01*
X149303685Y-80725489D02*
X149446542Y-80654060D01*
X149446542Y-80654060D02*
X149589400Y-80511203D01*
X149589400Y-80511203D02*
X149660828Y-80296917D01*
X149660828Y-80296917D02*
X149660828Y-80154060D01*
X149660828Y-80154060D02*
X149589400Y-79939774D01*
X149589400Y-79939774D02*
X149517971Y-79868346D01*
X149517971Y-79868346D02*
X149017971Y-79868346D01*
X149017971Y-79868346D02*
X149017971Y-80154060D01*
X149660828Y-79225489D02*
X148160828Y-79225489D01*
X148160828Y-79225489D02*
X149660828Y-78368346D01*
X149660828Y-78368346D02*
X148160828Y-78368346D01*
X149660828Y-77654060D02*
X148160828Y-77654060D01*
X148160828Y-77654060D02*
X148160828Y-77296917D01*
X148160828Y-77296917D02*
X148232257Y-77082631D01*
X148232257Y-77082631D02*
X148375114Y-76939774D01*
X148375114Y-76939774D02*
X148517971Y-76868345D01*
X148517971Y-76868345D02*
X148803685Y-76796917D01*
X148803685Y-76796917D02*
X149017971Y-76796917D01*
X149017971Y-76796917D02*
X149303685Y-76868345D01*
X149303685Y-76868345D02*
X149446542Y-76939774D01*
X149446542Y-76939774D02*
X149589400Y-77082631D01*
X149589400Y-77082631D02*
X149660828Y-77296917D01*
X149660828Y-77296917D02*
X149660828Y-77654060D01*
X137103225Y-124245757D02*
X136960368Y-124174328D01*
X136960368Y-124174328D02*
X136746082Y-124174328D01*
X136746082Y-124174328D02*
X136531796Y-124245757D01*
X136531796Y-124245757D02*
X136388939Y-124388614D01*
X136388939Y-124388614D02*
X136317510Y-124531471D01*
X136317510Y-124531471D02*
X136246082Y-124817185D01*
X136246082Y-124817185D02*
X136246082Y-125031471D01*
X136246082Y-125031471D02*
X136317510Y-125317185D01*
X136317510Y-125317185D02*
X136388939Y-125460042D01*
X136388939Y-125460042D02*
X136531796Y-125602900D01*
X136531796Y-125602900D02*
X136746082Y-125674328D01*
X136746082Y-125674328D02*
X136888939Y-125674328D01*
X136888939Y-125674328D02*
X137103225Y-125602900D01*
X137103225Y-125602900D02*
X137174653Y-125531471D01*
X137174653Y-125531471D02*
X137174653Y-125031471D01*
X137174653Y-125031471D02*
X136888939Y-125031471D01*
X137817510Y-125674328D02*
X137817510Y-124174328D01*
X137817510Y-124174328D02*
X138674653Y-125674328D01*
X138674653Y-125674328D02*
X138674653Y-124174328D01*
X139388939Y-125674328D02*
X139388939Y-124174328D01*
X139388939Y-124174328D02*
X139746082Y-124174328D01*
X139746082Y-124174328D02*
X139960368Y-124245757D01*
X139960368Y-124245757D02*
X140103225Y-124388614D01*
X140103225Y-124388614D02*
X140174654Y-124531471D01*
X140174654Y-124531471D02*
X140246082Y-124817185D01*
X140246082Y-124817185D02*
X140246082Y-125031471D01*
X140246082Y-125031471D02*
X140174654Y-125317185D01*
X140174654Y-125317185D02*
X140103225Y-125460042D01*
X140103225Y-125460042D02*
X139960368Y-125602900D01*
X139960368Y-125602900D02*
X139746082Y-125674328D01*
X139746082Y-125674328D02*
X139388939Y-125674328D01*
X130531082Y-125602900D02*
X130745368Y-125674328D01*
X130745368Y-125674328D02*
X131102510Y-125674328D01*
X131102510Y-125674328D02*
X131245368Y-125602900D01*
X131245368Y-125602900D02*
X131316796Y-125531471D01*
X131316796Y-125531471D02*
X131388225Y-125388614D01*
X131388225Y-125388614D02*
X131388225Y-125245757D01*
X131388225Y-125245757D02*
X131316796Y-125102900D01*
X131316796Y-125102900D02*
X131245368Y-125031471D01*
X131245368Y-125031471D02*
X131102510Y-124960042D01*
X131102510Y-124960042D02*
X130816796Y-124888614D01*
X130816796Y-124888614D02*
X130673939Y-124817185D01*
X130673939Y-124817185D02*
X130602510Y-124745757D01*
X130602510Y-124745757D02*
X130531082Y-124602900D01*
X130531082Y-124602900D02*
X130531082Y-124460042D01*
X130531082Y-124460042D02*
X130602510Y-124317185D01*
X130602510Y-124317185D02*
X130673939Y-124245757D01*
X130673939Y-124245757D02*
X130816796Y-124174328D01*
X130816796Y-124174328D02*
X131173939Y-124174328D01*
X131173939Y-124174328D02*
X131388225Y-124245757D01*
X132888224Y-125531471D02*
X132816796Y-125602900D01*
X132816796Y-125602900D02*
X132602510Y-125674328D01*
X132602510Y-125674328D02*
X132459653Y-125674328D01*
X132459653Y-125674328D02*
X132245367Y-125602900D01*
X132245367Y-125602900D02*
X132102510Y-125460042D01*
X132102510Y-125460042D02*
X132031081Y-125317185D01*
X132031081Y-125317185D02*
X131959653Y-125031471D01*
X131959653Y-125031471D02*
X131959653Y-124817185D01*
X131959653Y-124817185D02*
X132031081Y-124531471D01*
X132031081Y-124531471D02*
X132102510Y-124388614D01*
X132102510Y-124388614D02*
X132245367Y-124245757D01*
X132245367Y-124245757D02*
X132459653Y-124174328D01*
X132459653Y-124174328D02*
X132602510Y-124174328D01*
X132602510Y-124174328D02*
X132816796Y-124245757D01*
X132816796Y-124245757D02*
X132888224Y-124317185D01*
X134245367Y-125674328D02*
X133531081Y-125674328D01*
X133531081Y-125674328D02*
X133531081Y-124174328D01*
X148160828Y-93639774D02*
X148160828Y-92782632D01*
X149660828Y-93211203D02*
X148160828Y-93211203D01*
X148875114Y-92282632D02*
X148875114Y-91782632D01*
X149660828Y-91568346D02*
X149660828Y-92282632D01*
X149660828Y-92282632D02*
X148160828Y-92282632D01*
X148160828Y-92282632D02*
X148160828Y-91568346D01*
X149517971Y-90068346D02*
X149589400Y-90139774D01*
X149589400Y-90139774D02*
X149660828Y-90354060D01*
X149660828Y-90354060D02*
X149660828Y-90496917D01*
X149660828Y-90496917D02*
X149589400Y-90711203D01*
X149589400Y-90711203D02*
X149446542Y-90854060D01*
X149446542Y-90854060D02*
X149303685Y-90925489D01*
X149303685Y-90925489D02*
X149017971Y-90996917D01*
X149017971Y-90996917D02*
X148803685Y-90996917D01*
X148803685Y-90996917D02*
X148517971Y-90925489D01*
X148517971Y-90925489D02*
X148375114Y-90854060D01*
X148375114Y-90854060D02*
X148232257Y-90711203D01*
X148232257Y-90711203D02*
X148160828Y-90496917D01*
X148160828Y-90496917D02*
X148160828Y-90354060D01*
X148160828Y-90354060D02*
X148232257Y-90139774D01*
X148232257Y-90139774D02*
X148303685Y-90068346D01*
X149089400Y-89425489D02*
X149089400Y-88282632D01*
X149660828Y-88854060D02*
X148517971Y-88854060D01*
X148160828Y-103164774D02*
X148160828Y-102307632D01*
X149660828Y-102736203D02*
X148160828Y-102736203D01*
X148875114Y-101807632D02*
X148875114Y-101307632D01*
X149660828Y-101093346D02*
X149660828Y-101807632D01*
X149660828Y-101807632D02*
X148160828Y-101807632D01*
X148160828Y-101807632D02*
X148160828Y-101093346D01*
X149517971Y-99593346D02*
X149589400Y-99664774D01*
X149589400Y-99664774D02*
X149660828Y-99879060D01*
X149660828Y-99879060D02*
X149660828Y-100021917D01*
X149660828Y-100021917D02*
X149589400Y-100236203D01*
X149589400Y-100236203D02*
X149446542Y-100379060D01*
X149446542Y-100379060D02*
X149303685Y-100450489D01*
X149303685Y-100450489D02*
X149017971Y-100521917D01*
X149017971Y-100521917D02*
X148803685Y-100521917D01*
X148803685Y-100521917D02*
X148517971Y-100450489D01*
X148517971Y-100450489D02*
X148375114Y-100379060D01*
X148375114Y-100379060D02*
X148232257Y-100236203D01*
X148232257Y-100236203D02*
X148160828Y-100021917D01*
X148160828Y-100021917D02*
X148160828Y-99879060D01*
X148160828Y-99879060D02*
X148232257Y-99664774D01*
X148232257Y-99664774D02*
X148303685Y-99593346D01*
X149089400Y-98950489D02*
X149089400Y-97807632D01*
X140612257Y-119944774D02*
X140540828Y-120087632D01*
X140540828Y-120087632D02*
X140540828Y-120301917D01*
X140540828Y-120301917D02*
X140612257Y-120516203D01*
X140612257Y-120516203D02*
X140755114Y-120659060D01*
X140755114Y-120659060D02*
X140897971Y-120730489D01*
X140897971Y-120730489D02*
X141183685Y-120801917D01*
X141183685Y-120801917D02*
X141397971Y-120801917D01*
X141397971Y-120801917D02*
X141683685Y-120730489D01*
X141683685Y-120730489D02*
X141826542Y-120659060D01*
X141826542Y-120659060D02*
X141969400Y-120516203D01*
X141969400Y-120516203D02*
X142040828Y-120301917D01*
X142040828Y-120301917D02*
X142040828Y-120159060D01*
X142040828Y-120159060D02*
X141969400Y-119944774D01*
X141969400Y-119944774D02*
X141897971Y-119873346D01*
X141897971Y-119873346D02*
X141397971Y-119873346D01*
X141397971Y-119873346D02*
X141397971Y-120159060D01*
X142040828Y-119230489D02*
X140540828Y-119230489D01*
X140540828Y-119230489D02*
X142040828Y-118373346D01*
X142040828Y-118373346D02*
X140540828Y-118373346D01*
X142040828Y-117659060D02*
X140540828Y-117659060D01*
X140540828Y-117659060D02*
X140540828Y-117301917D01*
X140540828Y-117301917D02*
X140612257Y-117087631D01*
X140612257Y-117087631D02*
X140755114Y-116944774D01*
X140755114Y-116944774D02*
X140897971Y-116873345D01*
X140897971Y-116873345D02*
X141183685Y-116801917D01*
X141183685Y-116801917D02*
X141397971Y-116801917D01*
X141397971Y-116801917D02*
X141683685Y-116873345D01*
X141683685Y-116873345D02*
X141826542Y-116944774D01*
X141826542Y-116944774D02*
X141969400Y-117087631D01*
X141969400Y-117087631D02*
X142040828Y-117301917D01*
X142040828Y-117301917D02*
X142040828Y-117659060D01*
X123546082Y-125602900D02*
X123760368Y-125674328D01*
X123760368Y-125674328D02*
X124117510Y-125674328D01*
X124117510Y-125674328D02*
X124260368Y-125602900D01*
X124260368Y-125602900D02*
X124331796Y-125531471D01*
X124331796Y-125531471D02*
X124403225Y-125388614D01*
X124403225Y-125388614D02*
X124403225Y-125245757D01*
X124403225Y-125245757D02*
X124331796Y-125102900D01*
X124331796Y-125102900D02*
X124260368Y-125031471D01*
X124260368Y-125031471D02*
X124117510Y-124960042D01*
X124117510Y-124960042D02*
X123831796Y-124888614D01*
X123831796Y-124888614D02*
X123688939Y-124817185D01*
X123688939Y-124817185D02*
X123617510Y-124745757D01*
X123617510Y-124745757D02*
X123546082Y-124602900D01*
X123546082Y-124602900D02*
X123546082Y-124460042D01*
X123546082Y-124460042D02*
X123617510Y-124317185D01*
X123617510Y-124317185D02*
X123688939Y-124245757D01*
X123688939Y-124245757D02*
X123831796Y-124174328D01*
X123831796Y-124174328D02*
X124188939Y-124174328D01*
X124188939Y-124174328D02*
X124403225Y-124245757D01*
X125046081Y-125674328D02*
X125046081Y-124174328D01*
X125046081Y-124174328D02*
X125403224Y-124174328D01*
X125403224Y-124174328D02*
X125617510Y-124245757D01*
X125617510Y-124245757D02*
X125760367Y-124388614D01*
X125760367Y-124388614D02*
X125831796Y-124531471D01*
X125831796Y-124531471D02*
X125903224Y-124817185D01*
X125903224Y-124817185D02*
X125903224Y-125031471D01*
X125903224Y-125031471D02*
X125831796Y-125317185D01*
X125831796Y-125317185D02*
X125760367Y-125460042D01*
X125760367Y-125460042D02*
X125617510Y-125602900D01*
X125617510Y-125602900D02*
X125403224Y-125674328D01*
X125403224Y-125674328D02*
X125046081Y-125674328D01*
X126474653Y-125245757D02*
X127188939Y-125245757D01*
X126331796Y-125674328D02*
X126831796Y-124174328D01*
X126831796Y-124174328D02*
X127331796Y-125674328D01*
X141469400Y-115015489D02*
X141469400Y-113872632D01*
X142040828Y-114444060D02*
X140897971Y-114444060D01*
X142040828Y-112372631D02*
X142040828Y-113229774D01*
X142040828Y-112801203D02*
X140540828Y-112801203D01*
X140540828Y-112801203D02*
X140755114Y-112944060D01*
X140755114Y-112944060D02*
X140897971Y-113086917D01*
X140897971Y-113086917D02*
X140969400Y-113229774D01*
X140683685Y-111801203D02*
X140612257Y-111729775D01*
X140612257Y-111729775D02*
X140540828Y-111586918D01*
X140540828Y-111586918D02*
X140540828Y-111229775D01*
X140540828Y-111229775D02*
X140612257Y-111086918D01*
X140612257Y-111086918D02*
X140683685Y-111015489D01*
X140683685Y-111015489D02*
X140826542Y-110944060D01*
X140826542Y-110944060D02*
X140969400Y-110944060D01*
X140969400Y-110944060D02*
X141183685Y-111015489D01*
X141183685Y-111015489D02*
X142040828Y-111872632D01*
X142040828Y-111872632D02*
X142040828Y-110944060D01*
X140540828Y-110515489D02*
X142040828Y-110015489D01*
X142040828Y-110015489D02*
X140540828Y-109515489D01*
X148160828Y-72049774D02*
X148160828Y-71192632D01*
X149660828Y-71621203D02*
X148160828Y-71621203D01*
X148875114Y-70692632D02*
X148875114Y-70192632D01*
X149660828Y-69978346D02*
X149660828Y-70692632D01*
X149660828Y-70692632D02*
X148160828Y-70692632D01*
X148160828Y-70692632D02*
X148160828Y-69978346D01*
X149517971Y-68478346D02*
X149589400Y-68549774D01*
X149589400Y-68549774D02*
X149660828Y-68764060D01*
X149660828Y-68764060D02*
X149660828Y-68906917D01*
X149660828Y-68906917D02*
X149589400Y-69121203D01*
X149589400Y-69121203D02*
X149446542Y-69264060D01*
X149446542Y-69264060D02*
X149303685Y-69335489D01*
X149303685Y-69335489D02*
X149017971Y-69406917D01*
X149017971Y-69406917D02*
X148803685Y-69406917D01*
X148803685Y-69406917D02*
X148517971Y-69335489D01*
X148517971Y-69335489D02*
X148375114Y-69264060D01*
X148375114Y-69264060D02*
X148232257Y-69121203D01*
X148232257Y-69121203D02*
X148160828Y-68906917D01*
X148160828Y-68906917D02*
X148160828Y-68764060D01*
X148160828Y-68764060D02*
X148232257Y-68549774D01*
X148232257Y-68549774D02*
X148303685Y-68478346D01*
X149660828Y-66692632D02*
X148160828Y-66692632D01*
X148160828Y-66692632D02*
X148160828Y-66121203D01*
X148160828Y-66121203D02*
X148232257Y-65978346D01*
X148232257Y-65978346D02*
X148303685Y-65906917D01*
X148303685Y-65906917D02*
X148446542Y-65835489D01*
X148446542Y-65835489D02*
X148660828Y-65835489D01*
X148660828Y-65835489D02*
X148803685Y-65906917D01*
X148803685Y-65906917D02*
X148875114Y-65978346D01*
X148875114Y-65978346D02*
X148946542Y-66121203D01*
X148946542Y-66121203D02*
X148946542Y-66692632D01*
X148160828Y-65335489D02*
X149660828Y-64978346D01*
X149660828Y-64978346D02*
X148589400Y-64692632D01*
X148589400Y-64692632D02*
X149660828Y-64406917D01*
X149660828Y-64406917D02*
X148160828Y-64049775D01*
X149660828Y-62621203D02*
X148946542Y-63121203D01*
X149660828Y-63478346D02*
X148160828Y-63478346D01*
X148160828Y-63478346D02*
X148160828Y-62906917D01*
X148160828Y-62906917D02*
X148232257Y-62764060D01*
X148232257Y-62764060D02*
X148303685Y-62692631D01*
X148303685Y-62692631D02*
X148446542Y-62621203D01*
X148446542Y-62621203D02*
X148660828Y-62621203D01*
X148660828Y-62621203D02*
X148803685Y-62692631D01*
X148803685Y-62692631D02*
X148875114Y-62764060D01*
X148875114Y-62764060D02*
X148946542Y-62906917D01*
X148946542Y-62906917D02*
X148946542Y-63478346D01*
X141524510Y-125102900D02*
X142667368Y-125102900D01*
X142095939Y-125674328D02*
X142095939Y-124531471D01*
X143238796Y-124174328D02*
X144167368Y-124174328D01*
X144167368Y-124174328D02*
X143667368Y-124745757D01*
X143667368Y-124745757D02*
X143881653Y-124745757D01*
X143881653Y-124745757D02*
X144024511Y-124817185D01*
X144024511Y-124817185D02*
X144095939Y-124888614D01*
X144095939Y-124888614D02*
X144167368Y-125031471D01*
X144167368Y-125031471D02*
X144167368Y-125388614D01*
X144167368Y-125388614D02*
X144095939Y-125531471D01*
X144095939Y-125531471D02*
X144024511Y-125602900D01*
X144024511Y-125602900D02*
X143881653Y-125674328D01*
X143881653Y-125674328D02*
X143453082Y-125674328D01*
X143453082Y-125674328D02*
X143310225Y-125602900D01*
X143310225Y-125602900D02*
X143238796Y-125531471D01*
X144810224Y-125531471D02*
X144881653Y-125602900D01*
X144881653Y-125602900D02*
X144810224Y-125674328D01*
X144810224Y-125674328D02*
X144738796Y-125602900D01*
X144738796Y-125602900D02*
X144810224Y-125531471D01*
X144810224Y-125531471D02*
X144810224Y-125674328D01*
X145381653Y-124174328D02*
X146310225Y-124174328D01*
X146310225Y-124174328D02*
X145810225Y-124745757D01*
X145810225Y-124745757D02*
X146024510Y-124745757D01*
X146024510Y-124745757D02*
X146167368Y-124817185D01*
X146167368Y-124817185D02*
X146238796Y-124888614D01*
X146238796Y-124888614D02*
X146310225Y-125031471D01*
X146310225Y-125031471D02*
X146310225Y-125388614D01*
X146310225Y-125388614D02*
X146238796Y-125531471D01*
X146238796Y-125531471D02*
X146167368Y-125602900D01*
X146167368Y-125602900D02*
X146024510Y-125674328D01*
X146024510Y-125674328D02*
X145595939Y-125674328D01*
X145595939Y-125674328D02*
X145453082Y-125602900D01*
X145453082Y-125602900D02*
X145381653Y-125531471D01*
X146738796Y-124174328D02*
X147238796Y-125674328D01*
X147238796Y-125674328D02*
X147738796Y-124174328D01*
D11*
X108675057Y-70817738D02*
X108627438Y-70912976D01*
X108627438Y-70912976D02*
X108532200Y-71008214D01*
X108532200Y-71008214D02*
X108389342Y-71151071D01*
X108389342Y-71151071D02*
X108341723Y-71246309D01*
X108341723Y-71246309D02*
X108341723Y-71341547D01*
X108579819Y-71293928D02*
X108532200Y-71389166D01*
X108532200Y-71389166D02*
X108436961Y-71484404D01*
X108436961Y-71484404D02*
X108246485Y-71532023D01*
X108246485Y-71532023D02*
X107913152Y-71532023D01*
X107913152Y-71532023D02*
X107722676Y-71484404D01*
X107722676Y-71484404D02*
X107627438Y-71389166D01*
X107627438Y-71389166D02*
X107579819Y-71293928D01*
X107579819Y-71293928D02*
X107579819Y-71103452D01*
X107579819Y-71103452D02*
X107627438Y-71008214D01*
X107627438Y-71008214D02*
X107722676Y-70912976D01*
X107722676Y-70912976D02*
X107913152Y-70865357D01*
X107913152Y-70865357D02*
X108246485Y-70865357D01*
X108246485Y-70865357D02*
X108436961Y-70912976D01*
X108436961Y-70912976D02*
X108532200Y-71008214D01*
X108532200Y-71008214D02*
X108579819Y-71103452D01*
X108579819Y-71103452D02*
X108579819Y-71293928D01*
X107675057Y-70484404D02*
X107627438Y-70436785D01*
X107627438Y-70436785D02*
X107579819Y-70341547D01*
X107579819Y-70341547D02*
X107579819Y-70103452D01*
X107579819Y-70103452D02*
X107627438Y-70008214D01*
X107627438Y-70008214D02*
X107675057Y-69960595D01*
X107675057Y-69960595D02*
X107770295Y-69912976D01*
X107770295Y-69912976D02*
X107865533Y-69912976D01*
X107865533Y-69912976D02*
X108008390Y-69960595D01*
X108008390Y-69960595D02*
X108579819Y-70532023D01*
X108579819Y-70532023D02*
X108579819Y-69912976D01*
X102071057Y-70834238D02*
X102023438Y-70929476D01*
X102023438Y-70929476D02*
X101928200Y-71024714D01*
X101928200Y-71024714D02*
X101785342Y-71167571D01*
X101785342Y-71167571D02*
X101737723Y-71262809D01*
X101737723Y-71262809D02*
X101737723Y-71358047D01*
X101975819Y-71310428D02*
X101928200Y-71405666D01*
X101928200Y-71405666D02*
X101832961Y-71500904D01*
X101832961Y-71500904D02*
X101642485Y-71548523D01*
X101642485Y-71548523D02*
X101309152Y-71548523D01*
X101309152Y-71548523D02*
X101118676Y-71500904D01*
X101118676Y-71500904D02*
X101023438Y-71405666D01*
X101023438Y-71405666D02*
X100975819Y-71310428D01*
X100975819Y-71310428D02*
X100975819Y-71119952D01*
X100975819Y-71119952D02*
X101023438Y-71024714D01*
X101023438Y-71024714D02*
X101118676Y-70929476D01*
X101118676Y-70929476D02*
X101309152Y-70881857D01*
X101309152Y-70881857D02*
X101642485Y-70881857D01*
X101642485Y-70881857D02*
X101832961Y-70929476D01*
X101832961Y-70929476D02*
X101928200Y-71024714D01*
X101928200Y-71024714D02*
X101975819Y-71119952D01*
X101975819Y-71119952D02*
X101975819Y-71310428D01*
X101975819Y-69929476D02*
X101975819Y-70500904D01*
X101975819Y-70215190D02*
X100975819Y-70215190D01*
X100975819Y-70215190D02*
X101118676Y-70310428D01*
X101118676Y-70310428D02*
X101213914Y-70405666D01*
X101213914Y-70405666D02*
X101261533Y-70500904D01*
X111749819Y-93749166D02*
X111273628Y-94082499D01*
X111749819Y-94320594D02*
X110749819Y-94320594D01*
X110749819Y-94320594D02*
X110749819Y-93939642D01*
X110749819Y-93939642D02*
X110797438Y-93844404D01*
X110797438Y-93844404D02*
X110845057Y-93796785D01*
X110845057Y-93796785D02*
X110940295Y-93749166D01*
X110940295Y-93749166D02*
X111083152Y-93749166D01*
X111083152Y-93749166D02*
X111178390Y-93796785D01*
X111178390Y-93796785D02*
X111226009Y-93844404D01*
X111226009Y-93844404D02*
X111273628Y-93939642D01*
X111273628Y-93939642D02*
X111273628Y-94320594D01*
X111749819Y-92796785D02*
X111749819Y-93368213D01*
X111749819Y-93082499D02*
X110749819Y-93082499D01*
X110749819Y-93082499D02*
X110892676Y-93177737D01*
X110892676Y-93177737D02*
X110987914Y-93272975D01*
X110987914Y-93272975D02*
X111035533Y-93368213D01*
X123063095Y-98327319D02*
X123063095Y-99136842D01*
X123063095Y-99136842D02*
X123110714Y-99232080D01*
X123110714Y-99232080D02*
X123158333Y-99279700D01*
X123158333Y-99279700D02*
X123253571Y-99327319D01*
X123253571Y-99327319D02*
X123444047Y-99327319D01*
X123444047Y-99327319D02*
X123539285Y-99279700D01*
X123539285Y-99279700D02*
X123586904Y-99232080D01*
X123586904Y-99232080D02*
X123634523Y-99136842D01*
X123634523Y-99136842D02*
X123634523Y-98327319D01*
X124015476Y-98327319D02*
X124634523Y-98327319D01*
X124634523Y-98327319D02*
X124301190Y-98708271D01*
X124301190Y-98708271D02*
X124444047Y-98708271D01*
X124444047Y-98708271D02*
X124539285Y-98755890D01*
X124539285Y-98755890D02*
X124586904Y-98803509D01*
X124586904Y-98803509D02*
X124634523Y-98898747D01*
X124634523Y-98898747D02*
X124634523Y-99136842D01*
X124634523Y-99136842D02*
X124586904Y-99232080D01*
X124586904Y-99232080D02*
X124539285Y-99279700D01*
X124539285Y-99279700D02*
X124444047Y-99327319D01*
X124444047Y-99327319D02*
X124158333Y-99327319D01*
X124158333Y-99327319D02*
X124063095Y-99279700D01*
X124063095Y-99279700D02*
X124015476Y-99232080D01*
X116829819Y-83589166D02*
X116353628Y-83922499D01*
X116829819Y-84160594D02*
X115829819Y-84160594D01*
X115829819Y-84160594D02*
X115829819Y-83779642D01*
X115829819Y-83779642D02*
X115877438Y-83684404D01*
X115877438Y-83684404D02*
X115925057Y-83636785D01*
X115925057Y-83636785D02*
X116020295Y-83589166D01*
X116020295Y-83589166D02*
X116163152Y-83589166D01*
X116163152Y-83589166D02*
X116258390Y-83636785D01*
X116258390Y-83636785D02*
X116306009Y-83684404D01*
X116306009Y-83684404D02*
X116353628Y-83779642D01*
X116353628Y-83779642D02*
X116353628Y-84160594D01*
X115925057Y-83208213D02*
X115877438Y-83160594D01*
X115877438Y-83160594D02*
X115829819Y-83065356D01*
X115829819Y-83065356D02*
X115829819Y-82827261D01*
X115829819Y-82827261D02*
X115877438Y-82732023D01*
X115877438Y-82732023D02*
X115925057Y-82684404D01*
X115925057Y-82684404D02*
X116020295Y-82636785D01*
X116020295Y-82636785D02*
X116115533Y-82636785D01*
X116115533Y-82636785D02*
X116258390Y-82684404D01*
X116258390Y-82684404D02*
X116829819Y-83255832D01*
X116829819Y-83255832D02*
X116829819Y-82636785D01*
X100999819Y-144926904D02*
X101809342Y-144926904D01*
X101809342Y-144926904D02*
X101904580Y-144879285D01*
X101904580Y-144879285D02*
X101952200Y-144831666D01*
X101952200Y-144831666D02*
X101999819Y-144736428D01*
X101999819Y-144736428D02*
X101999819Y-144545952D01*
X101999819Y-144545952D02*
X101952200Y-144450714D01*
X101952200Y-144450714D02*
X101904580Y-144403095D01*
X101904580Y-144403095D02*
X101809342Y-144355476D01*
X101809342Y-144355476D02*
X100999819Y-144355476D01*
X101999819Y-143355476D02*
X101999819Y-143926904D01*
X101999819Y-143641190D02*
X100999819Y-143641190D01*
X100999819Y-143641190D02*
X101142676Y-143736428D01*
X101142676Y-143736428D02*
X101237914Y-143831666D01*
X101237914Y-143831666D02*
X101285533Y-143926904D01*
D13*
%TO.C,Q2*%
X109125000Y-75842500D02*
X113766000Y-75842500D01*
X109125000Y-75842500D02*
X109125000Y-65602500D01*
X110635000Y-75842500D02*
X110635000Y-65602500D01*
X113766000Y-75842500D02*
X113766000Y-65602500D01*
X109125000Y-72572500D02*
X110635000Y-72572500D01*
X109125000Y-68871500D02*
X110635000Y-68871500D01*
X109125000Y-65602500D02*
X113766000Y-65602500D01*
%TO.C,Q1*%
X104031000Y-75859000D02*
X104031000Y-65619000D01*
X102521000Y-65619000D02*
X107162000Y-65619000D01*
X107162000Y-75859000D02*
X107162000Y-65619000D01*
X102521000Y-75859000D02*
X107162000Y-75859000D01*
X102521000Y-68888000D02*
X104031000Y-68888000D01*
X102521000Y-72589000D02*
X104031000Y-72589000D01*
X102521000Y-75859000D02*
X102521000Y-65619000D01*
%TO.C,R1*%
X113665000Y-97622500D02*
X113665000Y-96852500D01*
X112295000Y-96852500D02*
X115035000Y-96852500D01*
X115035000Y-96852500D02*
X115035000Y-90312500D01*
X112295000Y-90312500D02*
X112295000Y-96852500D01*
X115035000Y-90312500D02*
X112295000Y-90312500D01*
X113665000Y-89542500D02*
X113665000Y-90312500D01*
%TO.C, *%
X130965000Y-107552500D02*
X130965000Y-105052500D01*
X133465000Y-107552500D02*
X130965000Y-107552500D01*
X131215000Y-107302500D02*
X131215000Y-85102500D01*
X146915000Y-107302500D02*
X131215000Y-107302500D01*
X146915000Y-107302500D02*
X146915000Y-85102500D01*
X131215000Y-85102500D02*
X146915000Y-85102500D01*
%TO.C,U3*%
X121575000Y-99872500D02*
X121575000Y-110152500D01*
X121575000Y-110152500D02*
X126075000Y-110152500D01*
X122825000Y-99872500D02*
X121575000Y-99872500D01*
X126075000Y-99872500D02*
X124825000Y-99872500D01*
X126075000Y-110152500D02*
X126075000Y-99872500D01*
X122825000Y-99872500D02*
G75*
G03*
X124825000Y-99872500I1000000J0D01*
G01*
%TO.C,R2*%
X118745000Y-87462500D02*
X118745000Y-86692500D01*
X117375000Y-86692500D02*
X120115000Y-86692500D01*
X120115000Y-86692500D02*
X120115000Y-80152500D01*
X117375000Y-80152500D02*
X117375000Y-86692500D01*
X120115000Y-80152500D02*
X117375000Y-80152500D01*
X118745000Y-79382500D02*
X118745000Y-80152500D01*
%TO.C, *%
X130965000Y-84612500D02*
X130965000Y-82112500D01*
X133465000Y-84612500D02*
X130965000Y-84612500D01*
X131215000Y-84362500D02*
X131215000Y-62162500D01*
X146915000Y-84362500D02*
X131215000Y-84362500D01*
X146915000Y-84362500D02*
X146915000Y-62162500D01*
X131215000Y-62162500D02*
X146915000Y-62162500D01*
X146685000Y-134222500D02*
X146685000Y-126602500D01*
X146685000Y-126602500D02*
X136525000Y-126602500D01*
X136525000Y-134222500D02*
X146685000Y-134222500D01*
X136525000Y-127872500D02*
X146685000Y-127872500D01*
X136525000Y-126602500D02*
X136525000Y-134222500D01*
X133985000Y-134222500D02*
X133985000Y-126602500D01*
X133985000Y-126602500D02*
X123825000Y-126602500D01*
X123825000Y-134222500D02*
X133985000Y-134222500D01*
X123825000Y-127872500D02*
X133985000Y-127872500D01*
X123825000Y-126602500D02*
X123825000Y-134222500D01*
X139065000Y-110092500D02*
X131445000Y-110092500D01*
X131445000Y-110092500D02*
X131445000Y-120252500D01*
X139065000Y-120252500D02*
X139065000Y-110092500D01*
X132715000Y-120252500D02*
X132715000Y-110092500D01*
X131445000Y-120252500D02*
X139065000Y-120252500D01*
%TD*%
M02*
