%TF.GenerationSoftware,KiCad,Pcbnew,7.0.7*%
%TF.CreationDate,2024-09-11T18:12:46-04:00*%
%TF.ProjectId,Qrig_thermolock,51726967-5f74-4686-9572-6d6f6c6f636b,rev?*%
%TF.SameCoordinates,Original*%
%TF.FileFunction,Copper,L1,Top*%
%TF.FilePolarity,Positive*%
%FSLAX46Y46*%
G04 Gerber Fmt 4.6, Leading zero omitted, Abs format (unit mm)*
G04 Created by KiCad (PCBNEW 7.0.7) date 2024-09-11 18:12:46*
%MOMM*%
%LPD*%
G01*
G04 APERTURE LIST*
%TA.AperFunction,ComponentPad*%
%ADD10R,2.000000X1.905000*%
%TD*%
%TA.AperFunction,ComponentPad*%
%ADD11O,2.000000X1.905000*%
%TD*%
%TA.AperFunction,ComponentPad*%
%ADD12C,1.600000*%
%TD*%
%TA.AperFunction,ComponentPad*%
%ADD13O,1.600000X1.600000*%
%TD*%
%TA.AperFunction,ComponentPad*%
%ADD14R,6.600000X3.300000*%
%TD*%
%TA.AperFunction,ComponentPad*%
%ADD15O,6.600000X3.300000*%
%TD*%
%TA.AperFunction,ComponentPad*%
%ADD16C,5.080000*%
%TD*%
%TA.AperFunction,ComponentPad*%
%ADD17R,2.400000X1.600000*%
%TD*%
%TA.AperFunction,ComponentPad*%
%ADD18O,2.400000X1.600000*%
%TD*%
%TA.AperFunction,ComponentPad*%
%ADD19R,1.524000X1.524000*%
%TD*%
%TA.AperFunction,ComponentPad*%
%ADD20C,1.524000*%
%TD*%
%TA.AperFunction,ComponentPad*%
%ADD21R,3.000000X3.000000*%
%TD*%
%TA.AperFunction,ComponentPad*%
%ADD22C,3.000000*%
%TD*%
%TA.AperFunction,Conductor*%
%ADD23C,0.500000*%
%TD*%
%TA.AperFunction,Conductor*%
%ADD24C,2.000000*%
%TD*%
%TA.AperFunction,Conductor*%
%ADD25C,1.000000*%
%TD*%
%TA.AperFunction,Conductor*%
%ADD26C,3.000000*%
%TD*%
G04 APERTURE END LIST*
D10*
%TO.P,Q2,1,G*%
%TO.N,Net-(Q1-G)*%
X112395000Y-73262500D03*
D11*
%TO.P,Q2,2,D*%
%TO.N,TEC -*%
X112395000Y-70722500D03*
%TO.P,Q2,3,S*%
%TO.N,GND*%
X112395000Y-68182500D03*
%TD*%
%TO.P,Q1,3,S*%
%TO.N,GND*%
X105791000Y-68199000D03*
%TO.P,Q1,2,D*%
%TO.N,TEC -*%
X105791000Y-70739000D03*
D10*
%TO.P,Q1,1,G*%
%TO.N,Net-(Q1-G)*%
X105791000Y-73279000D03*
%TD*%
D12*
%TO.P,R1,1*%
%TO.N,GND*%
X113665000Y-98662500D03*
D13*
%TO.P,R1,2*%
%TO.N,Net-(U3-1IN-)*%
X113665000Y-88502500D03*
%TD*%
D14*
%TO.P, ,1*%
%TO.N,TEC -*%
X139065000Y-101202500D03*
D15*
%TO.P, ,2*%
%TO.N,N/C*%
X139065000Y-91202500D03*
%TD*%
D16*
%TO.P,,2*%
%TO.N,N/C*%
X127000000Y-139700000D03*
%TD*%
%TO.P,,2*%
%TO.N,N/C*%
X127000000Y-63500000D03*
%TD*%
D17*
%TO.P,U3,1,1OUT*%
%TO.N,Net-(Q1-G)*%
X120015000Y-101202500D03*
D18*
%TO.P,U3,2,1IN-*%
%TO.N,Net-(U3-1IN-)*%
X120015000Y-103742500D03*
%TO.P,U3,3,1IN+*%
%TO.N,Net-(U1-GPIO17{slash}GPIO_GEN0)*%
X120015000Y-106282500D03*
%TO.P,U3,4,GND*%
%TO.N,GND*%
X120015000Y-108822500D03*
%TO.P,U3,5,2IN+*%
%TO.N,unconnected-(U3-2IN+-Pad5)*%
X127635000Y-108822500D03*
%TO.P,U3,6,2IN-*%
%TO.N,unconnected-(U3-2IN--Pad6)*%
X127635000Y-106282500D03*
%TO.P,U3,7,2OUT*%
%TO.N,unconnected-(U3-2OUT-Pad7)*%
X127635000Y-103742500D03*
%TO.P,U3,8,VCC*%
%TO.N,12V*%
X127635000Y-101202500D03*
%TD*%
D12*
%TO.P,R2,1*%
%TO.N,Net-(U3-1IN-)*%
X118745000Y-88502500D03*
D13*
%TO.P,R2,2*%
%TO.N,Net-(Q1-G)*%
X118745000Y-78342500D03*
%TD*%
D14*
%TO.P, ,1*%
%TO.N,GND*%
X139065000Y-78262500D03*
D15*
%TO.P, ,2*%
%TO.N,N/C*%
X139065000Y-68262500D03*
%TD*%
D19*
%TO.P,U1,1,3V3*%
%TO.N,3.3V*%
X107950000Y-140970000D03*
D20*
%TO.P,U1,2,5V0*%
%TO.N,unconnected-(U1-5V0-Pad2)*%
X105410000Y-140970000D03*
%TO.P,U1,3,GPIO2/SDA1*%
%TO.N,SDA*%
X107950000Y-138430000D03*
%TO.P,U1,4,5V0*%
%TO.N,unconnected-(U1-5V0-Pad2)*%
X105410000Y-138430000D03*
%TO.P,U1,5,GPIO3/SCL1*%
%TO.N,SCL*%
X107950000Y-135890000D03*
%TO.P,U1,6,GND*%
%TO.N,GND*%
X105410000Y-135890000D03*
%TO.P,U1,7,GPIO4/GPIO_GCKL*%
%TO.N,unconnected-(U1-GPIO4{slash}GPIO_GCKL-Pad7)*%
X107950000Y-133350000D03*
%TO.P,U1,8,TXD0/GPIO14*%
%TO.N,unconnected-(U1-TXD0{slash}GPIO14-Pad8)*%
X105410000Y-133350000D03*
%TO.P,U1,9,GND*%
%TO.N,GND*%
X107950000Y-130810000D03*
%TO.P,U1,10,RXD0/GPIO15*%
%TO.N,unconnected-(U1-RXD0{slash}GPIO15-Pad10)*%
X105410000Y-130810000D03*
%TO.P,U1,11,GPIO17/GPIO_GEN0*%
%TO.N,Net-(U1-GPIO17{slash}GPIO_GEN0)*%
X107950000Y-128270000D03*
%TO.P,U1,12,GPIO18/GPIO_GEN1*%
%TO.N,unconnected-(U1-GPIO18{slash}GPIO_GEN1-Pad12)*%
X105410000Y-128270000D03*
%TO.P,U1,13,GPIO27/GPIO_GEN2*%
%TO.N,unconnected-(U1-GPIO27{slash}GPIO_GEN2-Pad13)*%
X107950000Y-125730000D03*
%TO.P,U1,14,GND*%
%TO.N,GND*%
X105410000Y-125730000D03*
%TO.P,U1,15,GPIO22/GPIO_GEN3*%
%TO.N,unconnected-(U1-GPIO22{slash}GPIO_GEN3-Pad15)*%
X107950000Y-123190000D03*
%TO.P,U1,16,GPIO23/GPIO_GEN4*%
%TO.N,unconnected-(U1-GPIO23{slash}GPIO_GEN4-Pad16)*%
X105410000Y-123190000D03*
%TO.P,U1,17,3V3*%
%TO.N,3.3V*%
X107950000Y-120650000D03*
%TO.P,U1,18,GPIO24/GPIO_GEN5*%
%TO.N,unconnected-(U1-GPIO24{slash}GPIO_GEN5-Pad18)*%
X105410000Y-120650000D03*
%TO.P,U1,19,GPIO10/SPI_MOSI*%
%TO.N,unconnected-(U1-GPIO10{slash}SPI_MOSI-Pad19)*%
X107950000Y-118110000D03*
%TO.P,U1,20,GND*%
%TO.N,GND*%
X105410000Y-118110000D03*
%TO.P,U1,21,GPIO9/SPI_MISO*%
%TO.N,unconnected-(U1-GPIO9{slash}SPI_MISO-Pad21)*%
X107950000Y-115570000D03*
%TO.P,U1,22,GPIO25/GPIO_GEN6*%
%TO.N,unconnected-(U1-GPIO25{slash}GPIO_GEN6-Pad22)*%
X105410000Y-115570000D03*
%TO.P,U1,23,GPIO11/SPI_SCLK*%
%TO.N,unconnected-(U1-GPIO11{slash}SPI_SCLK-Pad23)*%
X107950000Y-113030000D03*
%TO.P,U1,24,GPIO8/~{SPI_CE0}*%
%TO.N,unconnected-(U1-GPIO8{slash}~{SPI_CE0}-Pad24)*%
X105410000Y-113030000D03*
%TO.P,U1,25,GND*%
%TO.N,GND*%
X107950000Y-110490000D03*
%TO.P,U1,26,GPIO7/~{SPI_CE1}*%
%TO.N,unconnected-(U1-GPIO7{slash}~{SPI_CE1}-Pad26)*%
X105410000Y-110490000D03*
%TO.P,U1,27,ID_SD*%
%TO.N,unconnected-(U1-ID_SD-Pad27)*%
X107950000Y-107950000D03*
%TO.P,U1,28,ID_SC*%
%TO.N,unconnected-(U1-ID_SC-Pad28)*%
X105410000Y-107950000D03*
%TO.P,U1,29,GPIO5*%
%TO.N,unconnected-(U1-GPIO5-Pad29)*%
X107950000Y-105410000D03*
%TO.P,U1,30,GND*%
%TO.N,GND*%
X105410000Y-105410000D03*
%TO.P,U1,31,GPIO6*%
%TO.N,unconnected-(U1-GPIO6-Pad31)*%
X107950000Y-102870000D03*
%TO.P,U1,32,GPIO12*%
%TO.N,unconnected-(U1-GPIO12-Pad32)*%
X105410000Y-102870000D03*
%TO.P,U1,33,GPIO13*%
%TO.N,unconnected-(U1-GPIO13-Pad33)*%
X107950000Y-100330000D03*
%TO.P,U1,34,GND*%
%TO.N,GND*%
X105410000Y-100330000D03*
%TO.P,U1,35,GPIO19*%
%TO.N,unconnected-(U1-GPIO19-Pad35)*%
X107950000Y-97790000D03*
%TO.P,U1,36,GPIO16*%
%TO.N,unconnected-(U1-GPIO16-Pad36)*%
X105410000Y-97790000D03*
%TO.P,U1,37,GPIO26*%
%TO.N,unconnected-(U1-GPIO26-Pad37)*%
X107950000Y-95250000D03*
%TO.P,U1,38,GPIO20*%
%TO.N,unconnected-(U1-GPIO20-Pad38)*%
X105410000Y-95250000D03*
%TO.P,U1,39,GND*%
%TO.N,GND*%
X107950000Y-92710000D03*
%TO.P,U1,40,GPIO21*%
%TO.N,unconnected-(U1-GPIO21-Pad40)*%
X105410000Y-92710000D03*
%TD*%
D21*
%TO.P, ,1*%
%TO.N,3.3V*%
X144145000Y-130412500D03*
D22*
%TO.P, ,2*%
%TO.N,GND*%
X139065000Y-130412500D03*
%TD*%
D21*
%TO.P, ,1*%
%TO.N,SCL*%
X131445000Y-130412500D03*
D22*
%TO.P, ,2*%
%TO.N,SDA*%
X126365000Y-130412500D03*
%TD*%
D21*
%TO.P, ,1*%
%TO.N,12V*%
X135255000Y-112632500D03*
D22*
%TO.P, ,2*%
%TO.N,GND*%
X135255000Y-117712500D03*
%TD*%
D23*
%TO.N,Net-(Q1-G)*%
X105807500Y-73262500D02*
X105791000Y-73279000D01*
X112395000Y-73262500D02*
X105807500Y-73262500D01*
D24*
%TO.N,TEC -*%
X105807500Y-70722500D02*
X105791000Y-70739000D01*
X112395000Y-70722500D02*
X105807500Y-70722500D01*
%TO.N,GND*%
X105807500Y-68182500D02*
X105791000Y-68199000D01*
X112395000Y-68182500D02*
X105807500Y-68182500D01*
D23*
X103251000Y-70231000D02*
X105283000Y-68199000D01*
X103251000Y-82931000D02*
X103251000Y-70231000D01*
X113665000Y-93345000D02*
X103251000Y-82931000D01*
X113665000Y-98662500D02*
X113665000Y-93345000D01*
X105283000Y-68199000D02*
X105791000Y-68199000D01*
D24*
%TO.N,*%
X144780000Y-73977500D02*
X139065000Y-68262500D01*
X144780000Y-73977500D02*
X144780000Y-85487500D01*
X144780000Y-85487500D02*
X139065000Y-91202500D01*
D23*
%TO.N,Net-(Q1-G)*%
X118745000Y-78342500D02*
X122555000Y-82152500D01*
X122555000Y-82152500D02*
X122555000Y-98662500D01*
X113665000Y-73262500D02*
X118745000Y-78342500D01*
X112395000Y-73262500D02*
X113665000Y-73262500D01*
X122555000Y-98662500D02*
X120015000Y-101202500D01*
D24*
%TO.N,TEC -*%
X126365000Y-80882500D02*
X116205000Y-70722500D01*
X116205000Y-70722500D02*
X112395000Y-70722500D01*
X126365000Y-88502500D02*
X126365000Y-80882500D01*
X139065000Y-101202500D02*
X126365000Y-88502500D01*
D23*
%TO.N,Net-(U3-1IN-)*%
X117688528Y-103616028D02*
X117688528Y-94003972D01*
X113665000Y-88502500D02*
X118745000Y-88502500D01*
X118745000Y-92947500D02*
X118745000Y-88502500D01*
X117688528Y-94003972D02*
X118745000Y-92947500D01*
X117815000Y-103742500D02*
X120015000Y-103742500D01*
X117688528Y-103616028D02*
X117815000Y-103742500D01*
%TO.N,Net-(U1-GPIO17{slash}GPIO_GEN0)*%
X122872500Y-113347500D02*
X107950000Y-128270000D01*
X120015000Y-106282500D02*
X121205000Y-106282500D01*
X122872500Y-107950000D02*
X122872500Y-113347500D01*
X121205000Y-106282500D02*
X122872500Y-107950000D01*
%TO.N,GND*%
X116840000Y-108822500D02*
X113665000Y-105647500D01*
X113665000Y-105647500D02*
X113665000Y-98662500D01*
X120015000Y-108822500D02*
X116840000Y-108822500D01*
%TO.N,12V*%
X127635000Y-101221180D02*
X135255000Y-108841180D01*
D25*
X127635000Y-101202500D02*
X127635000Y-101221180D01*
D23*
X135255000Y-108841180D02*
X135255000Y-112632500D01*
%TO.N,3.3V*%
X144145000Y-130412500D02*
X139065000Y-135492500D01*
X123587500Y-135492500D02*
X118110000Y-140970000D01*
X118110000Y-140970000D02*
X107950000Y-140970000D01*
X139065000Y-135492500D02*
X123587500Y-135492500D01*
%TO.N,SDA*%
X118347500Y-138430000D02*
X107950000Y-138430000D01*
X126365000Y-130412500D02*
X118347500Y-138430000D01*
%TO.N,SCL*%
X131445000Y-130412500D02*
X128032500Y-127000000D01*
X128032500Y-127000000D02*
X124460000Y-127000000D01*
X115570000Y-135890000D02*
X107950000Y-135890000D01*
X124460000Y-127000000D02*
X115570000Y-135890000D01*
%TO.N,GND*%
X137795000Y-96122500D02*
X133985000Y-92312500D01*
X133985000Y-83342500D02*
X139065000Y-78262500D01*
X145415000Y-100567500D02*
X140970000Y-96122500D01*
X133985000Y-92312500D02*
X133985000Y-83342500D01*
X139065000Y-130412500D02*
X139065000Y-121522500D01*
X121047500Y-117712500D02*
X135255000Y-117712500D01*
D24*
X112395000Y-68182500D02*
X128985000Y-68182500D01*
D23*
X140970000Y-96122500D02*
X137795000Y-96122500D01*
X145415000Y-107552500D02*
X145415000Y-100567500D01*
X139065000Y-121522500D02*
X135255000Y-117712500D01*
D26*
X139065000Y-78262500D02*
X139065000Y-78342500D01*
D23*
X107950000Y-130810000D02*
X121047500Y-117712500D01*
X135255000Y-117712500D02*
X145415000Y-107552500D01*
D24*
X128985000Y-68182500D02*
X139065000Y-78262500D01*
%TD*%
M02*
