%TF.GenerationSoftware,KiCad,Pcbnew,7.0.7*%
%TF.CreationDate,2024-09-11T18:12:46-04:00*%
%TF.ProjectId,Qrig_thermolock,51726967-5f74-4686-9572-6d6f6c6f636b,rev?*%
%TF.SameCoordinates,Original*%
%TF.FileFunction,Copper,L2,Bot*%
%TF.FilePolarity,Positive*%
%FSLAX46Y46*%
G04 Gerber Fmt 4.6, Leading zero omitted, Abs format (unit mm)*
G04 Created by KiCad (PCBNEW 7.0.7) date 2024-09-11 18:12:46*
%MOMM*%
%LPD*%
G01*
G04 APERTURE LIST*
%TA.AperFunction,NonConductor*%
%ADD10C,0.200000*%
%TD*%
%TA.AperFunction,ComponentPad*%
%ADD11R,2.000000X1.905000*%
%TD*%
%TA.AperFunction,ComponentPad*%
%ADD12O,2.000000X1.905000*%
%TD*%
%TA.AperFunction,ComponentPad*%
%ADD13C,1.600000*%
%TD*%
%TA.AperFunction,ComponentPad*%
%ADD14O,1.600000X1.600000*%
%TD*%
%TA.AperFunction,ComponentPad*%
%ADD15R,6.600000X3.300000*%
%TD*%
%TA.AperFunction,ComponentPad*%
%ADD16O,6.600000X3.300000*%
%TD*%
%TA.AperFunction,ComponentPad*%
%ADD17C,5.080000*%
%TD*%
%TA.AperFunction,ComponentPad*%
%ADD18R,2.400000X1.600000*%
%TD*%
%TA.AperFunction,ComponentPad*%
%ADD19O,2.400000X1.600000*%
%TD*%
%TA.AperFunction,ComponentPad*%
%ADD20R,1.524000X1.524000*%
%TD*%
%TA.AperFunction,ComponentPad*%
%ADD21C,1.524000*%
%TD*%
%TA.AperFunction,ComponentPad*%
%ADD22R,3.000000X3.000000*%
%TD*%
%TA.AperFunction,ComponentPad*%
%ADD23C,3.000000*%
%TD*%
G04 APERTURE END LIST*
D10*
X100330000Y-57150000D02*
X153670000Y-57150000D01*
X153670000Y-146050000D01*
X100330000Y-146050000D01*
X100330000Y-57150000D01*
D11*
%TO.P,Q2,1,G*%
%TO.N,Net-(Q1-G)*%
X112395000Y-73262500D03*
D12*
%TO.P,Q2,2,D*%
%TO.N,TEC -*%
X112395000Y-70722500D03*
%TO.P,Q2,3,S*%
%TO.N,GND*%
X112395000Y-68182500D03*
%TD*%
%TO.P,Q1,3,S*%
%TO.N,GND*%
X105791000Y-68199000D03*
%TO.P,Q1,2,D*%
%TO.N,TEC -*%
X105791000Y-70739000D03*
D11*
%TO.P,Q1,1,G*%
%TO.N,Net-(Q1-G)*%
X105791000Y-73279000D03*
%TD*%
D13*
%TO.P,R1,1*%
%TO.N,GND*%
X113665000Y-98662500D03*
D14*
%TO.P,R1,2*%
%TO.N,Net-(U3-1IN-)*%
X113665000Y-88502500D03*
%TD*%
D15*
%TO.P, ,1*%
%TO.N,TEC -*%
X139065000Y-101202500D03*
D16*
%TO.P, ,2*%
%TO.N,N/C*%
X139065000Y-91202500D03*
%TD*%
D17*
%TO.P,,2*%
%TO.N,N/C*%
X127000000Y-139700000D03*
%TD*%
%TO.P,,2*%
%TO.N,N/C*%
X127000000Y-63500000D03*
%TD*%
D18*
%TO.P,U3,1,1OUT*%
%TO.N,Net-(Q1-G)*%
X120015000Y-101202500D03*
D19*
%TO.P,U3,2,1IN-*%
%TO.N,Net-(U3-1IN-)*%
X120015000Y-103742500D03*
%TO.P,U3,3,1IN+*%
%TO.N,Net-(U1-GPIO17{slash}GPIO_GEN0)*%
X120015000Y-106282500D03*
%TO.P,U3,4,GND*%
%TO.N,GND*%
X120015000Y-108822500D03*
%TO.P,U3,5,2IN+*%
%TO.N,unconnected-(U3-2IN+-Pad5)*%
X127635000Y-108822500D03*
%TO.P,U3,6,2IN-*%
%TO.N,unconnected-(U3-2IN--Pad6)*%
X127635000Y-106282500D03*
%TO.P,U3,7,2OUT*%
%TO.N,unconnected-(U3-2OUT-Pad7)*%
X127635000Y-103742500D03*
%TO.P,U3,8,VCC*%
%TO.N,12V*%
X127635000Y-101202500D03*
%TD*%
D13*
%TO.P,R2,1*%
%TO.N,Net-(U3-1IN-)*%
X118745000Y-88502500D03*
D14*
%TO.P,R2,2*%
%TO.N,Net-(Q1-G)*%
X118745000Y-78342500D03*
%TD*%
D15*
%TO.P, ,1*%
%TO.N,GND*%
X139065000Y-78262500D03*
D16*
%TO.P, ,2*%
%TO.N,N/C*%
X139065000Y-68262500D03*
%TD*%
D20*
%TO.P,U1,1,3V3*%
%TO.N,3.3V*%
X107950000Y-140970000D03*
D21*
%TO.P,U1,2,5V0*%
%TO.N,unconnected-(U1-5V0-Pad2)*%
X105410000Y-140970000D03*
%TO.P,U1,3,GPIO2/SDA1*%
%TO.N,SDA*%
X107950000Y-138430000D03*
%TO.P,U1,4,5V0*%
%TO.N,unconnected-(U1-5V0-Pad2)*%
X105410000Y-138430000D03*
%TO.P,U1,5,GPIO3/SCL1*%
%TO.N,SCL*%
X107950000Y-135890000D03*
%TO.P,U1,6,GND*%
%TO.N,GND*%
X105410000Y-135890000D03*
%TO.P,U1,7,GPIO4/GPIO_GCKL*%
%TO.N,unconnected-(U1-GPIO4{slash}GPIO_GCKL-Pad7)*%
X107950000Y-133350000D03*
%TO.P,U1,8,TXD0/GPIO14*%
%TO.N,unconnected-(U1-TXD0{slash}GPIO14-Pad8)*%
X105410000Y-133350000D03*
%TO.P,U1,9,GND*%
%TO.N,GND*%
X107950000Y-130810000D03*
%TO.P,U1,10,RXD0/GPIO15*%
%TO.N,unconnected-(U1-RXD0{slash}GPIO15-Pad10)*%
X105410000Y-130810000D03*
%TO.P,U1,11,GPIO17/GPIO_GEN0*%
%TO.N,Net-(U1-GPIO17{slash}GPIO_GEN0)*%
X107950000Y-128270000D03*
%TO.P,U1,12,GPIO18/GPIO_GEN1*%
%TO.N,unconnected-(U1-GPIO18{slash}GPIO_GEN1-Pad12)*%
X105410000Y-128270000D03*
%TO.P,U1,13,GPIO27/GPIO_GEN2*%
%TO.N,unconnected-(U1-GPIO27{slash}GPIO_GEN2-Pad13)*%
X107950000Y-125730000D03*
%TO.P,U1,14,GND*%
%TO.N,GND*%
X105410000Y-125730000D03*
%TO.P,U1,15,GPIO22/GPIO_GEN3*%
%TO.N,unconnected-(U1-GPIO22{slash}GPIO_GEN3-Pad15)*%
X107950000Y-123190000D03*
%TO.P,U1,16,GPIO23/GPIO_GEN4*%
%TO.N,unconnected-(U1-GPIO23{slash}GPIO_GEN4-Pad16)*%
X105410000Y-123190000D03*
%TO.P,U1,17,3V3*%
%TO.N,3.3V*%
X107950000Y-120650000D03*
%TO.P,U1,18,GPIO24/GPIO_GEN5*%
%TO.N,unconnected-(U1-GPIO24{slash}GPIO_GEN5-Pad18)*%
X105410000Y-120650000D03*
%TO.P,U1,19,GPIO10/SPI_MOSI*%
%TO.N,unconnected-(U1-GPIO10{slash}SPI_MOSI-Pad19)*%
X107950000Y-118110000D03*
%TO.P,U1,20,GND*%
%TO.N,GND*%
X105410000Y-118110000D03*
%TO.P,U1,21,GPIO9/SPI_MISO*%
%TO.N,unconnected-(U1-GPIO9{slash}SPI_MISO-Pad21)*%
X107950000Y-115570000D03*
%TO.P,U1,22,GPIO25/GPIO_GEN6*%
%TO.N,unconnected-(U1-GPIO25{slash}GPIO_GEN6-Pad22)*%
X105410000Y-115570000D03*
%TO.P,U1,23,GPIO11/SPI_SCLK*%
%TO.N,unconnected-(U1-GPIO11{slash}SPI_SCLK-Pad23)*%
X107950000Y-113030000D03*
%TO.P,U1,24,GPIO8/~{SPI_CE0}*%
%TO.N,unconnected-(U1-GPIO8{slash}~{SPI_CE0}-Pad24)*%
X105410000Y-113030000D03*
%TO.P,U1,25,GND*%
%TO.N,GND*%
X107950000Y-110490000D03*
%TO.P,U1,26,GPIO7/~{SPI_CE1}*%
%TO.N,unconnected-(U1-GPIO7{slash}~{SPI_CE1}-Pad26)*%
X105410000Y-110490000D03*
%TO.P,U1,27,ID_SD*%
%TO.N,unconnected-(U1-ID_SD-Pad27)*%
X107950000Y-107950000D03*
%TO.P,U1,28,ID_SC*%
%TO.N,unconnected-(U1-ID_SC-Pad28)*%
X105410000Y-107950000D03*
%TO.P,U1,29,GPIO5*%
%TO.N,unconnected-(U1-GPIO5-Pad29)*%
X107950000Y-105410000D03*
%TO.P,U1,30,GND*%
%TO.N,GND*%
X105410000Y-105410000D03*
%TO.P,U1,31,GPIO6*%
%TO.N,unconnected-(U1-GPIO6-Pad31)*%
X107950000Y-102870000D03*
%TO.P,U1,32,GPIO12*%
%TO.N,unconnected-(U1-GPIO12-Pad32)*%
X105410000Y-102870000D03*
%TO.P,U1,33,GPIO13*%
%TO.N,unconnected-(U1-GPIO13-Pad33)*%
X107950000Y-100330000D03*
%TO.P,U1,34,GND*%
%TO.N,GND*%
X105410000Y-100330000D03*
%TO.P,U1,35,GPIO19*%
%TO.N,unconnected-(U1-GPIO19-Pad35)*%
X107950000Y-97790000D03*
%TO.P,U1,36,GPIO16*%
%TO.N,unconnected-(U1-GPIO16-Pad36)*%
X105410000Y-97790000D03*
%TO.P,U1,37,GPIO26*%
%TO.N,unconnected-(U1-GPIO26-Pad37)*%
X107950000Y-95250000D03*
%TO.P,U1,38,GPIO20*%
%TO.N,unconnected-(U1-GPIO20-Pad38)*%
X105410000Y-95250000D03*
%TO.P,U1,39,GND*%
%TO.N,GND*%
X107950000Y-92710000D03*
%TO.P,U1,40,GPIO21*%
%TO.N,unconnected-(U1-GPIO21-Pad40)*%
X105410000Y-92710000D03*
%TD*%
D22*
%TO.P, ,1*%
%TO.N,3.3V*%
X144145000Y-130412500D03*
D23*
%TO.P, ,2*%
%TO.N,GND*%
X139065000Y-130412500D03*
%TD*%
D22*
%TO.P, ,1*%
%TO.N,SCL*%
X131445000Y-130412500D03*
D23*
%TO.P, ,2*%
%TO.N,SDA*%
X126365000Y-130412500D03*
%TD*%
D22*
%TO.P, ,1*%
%TO.N,12V*%
X135255000Y-112632500D03*
D23*
%TO.P, ,2*%
%TO.N,GND*%
X135255000Y-117712500D03*
%TD*%
M02*
